<svg width="25" height="24" viewBox="0 0 25 24" fill="none" xmlns="http://www.w3.org/2000/svg">
<g id="Frame">
<path id="Vector" d="M12.9609 17C13.2443 17 13.4818 16.9042 13.6734 16.7125C13.8651 16.5208 13.9609 16.2833 13.9609 16C13.9609 15.7167 13.8651 15.4792 13.6734 15.2875C13.4818 15.0958 13.2443 15 12.9609 15C12.6776 15 12.4401 15.0958 12.2484 15.2875C12.0568 15.4792 11.9609 15.7167 11.9609 16C11.9609 16.2833 12.0568 16.5208 12.2484 16.7125C12.4401 16.9042 12.6776 17 12.9609 17ZM11.9609 13H13.9609V7H11.9609V13ZM12.9609 22C11.5776 22 10.2776 21.7375 9.06094 21.2125C7.84427 20.6875 6.78594 19.975 5.88594 19.075C4.98594 18.175 4.27344 17.1167 3.74844 15.9C3.22344 14.6833 2.96094 13.3833 2.96094 12C2.96094 10.6167 3.22344 9.31667 3.74844 8.1C4.27344 6.88333 4.98594 5.825 5.88594 4.925C6.78594 4.025 7.84427 3.3125 9.06094 2.7875C10.2776 2.2625 11.5776 2 12.9609 2C14.3443 2 15.6443 2.2625 16.8609 2.7875C18.0776 3.3125 19.1359 4.025 20.0359 4.925C20.9359 5.825 21.6484 6.88333 22.1734 8.1C22.6984 9.31667 22.9609 10.6167 22.9609 12C22.9609 13.3833 22.6984 14.6833 22.1734 15.9C21.6484 17.1167 20.9359 18.175 20.0359 19.075C19.1359 19.975 18.0776 20.6875 16.8609 21.2125C15.6443 21.7375 14.3443 22 12.9609 22ZM12.9609 20C15.1943 20 17.0859 19.225 18.6359 17.675C20.1859 16.125 20.9609 14.2333 20.9609 12C20.9609 9.76667 20.1859 7.875 18.6359 6.325C17.0859 4.775 15.1943 4 12.9609 4C10.7276 4 8.83594 4.775 7.28594 6.325C5.73594 7.875 4.96094 9.76667 4.96094 12C4.96094 14.2333 5.73594 16.125 7.28594 17.675C8.83594 19.225 10.7276 20 12.9609 20Z" fill="#F3F3F4"/>
</g>
</svg>
