<svg width="25" height="24" viewBox="0 0 25 24" fill="none" xmlns="http://www.w3.org/2000/svg">
<g id="Frame" clip-path="url(#clip0_16389_16057)">
<g id="Vector">
<path fill-rule="evenodd" clip-rule="evenodd" d="M9.91805 4.64516C10.4451 4.64516 10.913 5.00055 11.0797 5.52745L12.8759 11.2057L18.2645 13.0985C18.7645 13.2741 19.1017 13.7672 19.1017 14.3226C19.1017 14.878 18.7645 15.3711 18.2645 15.5467L12.8759 17.4394L11.0797 23.1177C10.913 23.6446 10.4451 24 9.91805 24C9.39099 24 8.92307 23.6446 8.7564 23.1177L6.96021 17.4394L1.57165 15.5467C1.07164 15.3711 0.734375 14.878 0.734375 14.3226C0.734375 13.7672 1.07164 13.2741 1.57165 13.0985L6.96021 11.2057L8.7564 5.52745C8.92307 5.00055 9.39099 4.64516 9.91805 4.64516ZM9.91805 10.0158L9.08991 12.6338C8.96803 13.0191 8.68111 13.3215 8.31547 13.4499L5.83104 14.3226L8.31547 15.1952C8.68111 15.3237 8.96803 15.626 9.08991 16.0113L9.91805 18.6293L10.7462 16.0113C10.8681 15.626 11.155 15.3237 11.5206 15.1952L14.0051 14.3226L11.5206 13.4499C11.155 13.3215 10.8681 13.0191 10.7462 12.6338L9.91805 10.0158Z" fill="#F3F3F4"/>
<path fill-rule="evenodd" clip-rule="evenodd" d="M19.714 0C20.0302 0 20.311 0.213236 20.411 0.529372L21.3662 3.54924L24.232 4.55586C24.532 4.66124 24.7344 4.95709 24.7344 5.29032C24.7344 5.62356 24.532 5.91941 24.232 6.02479L21.3662 7.03141L20.411 10.0513C20.311 10.3674 20.0302 10.5806 19.714 10.5806C19.3977 10.5806 19.117 10.3674 19.017 10.0513L18.0617 7.03141L15.1959 6.02479C14.8959 5.91941 14.6936 5.62356 14.6936 5.29032C14.6936 4.95709 14.8959 4.66124 15.1959 4.55586L18.0617 3.54924L19.017 0.529372C19.117 0.213236 19.3977 0 19.714 0Z" fill="#F3F3F4"/>
</g>
</g>
<defs>
<clipPath id="clip0_16389_16057">
<rect width="24" height="24" fill="white" transform="translate(0.734375)"/>
</clipPath>
</defs>
</svg>
