<svg width="20" height="22" viewBox="0 0 20 22" fill="none" xmlns="http://www.w3.org/2000/svg">
<g id="monitor">
<path id="Combo shape" fill-rule="evenodd" clip-rule="evenodd" d="M0 4.625C0 2.41586 1.79086 0.625 4 0.625H16C18.2091 0.625 20 2.41586 20 4.625V12.875H0V4.625ZM4 17.625C2.04721 17.625 0.421253 16.2256 0.0701979 14.375H19.9298C19.5787 16.2256 17.9528 17.625 16 17.625H10.75V19.875H13C13.4142 19.875 13.75 20.2108 13.75 20.625C13.75 21.0392 13.4142 21.375 13 21.375H7C6.58579 21.375 6.25 21.0392 6.25 20.625C6.25 20.2108 6.58579 19.875 7 19.875H9.25V17.625H4ZM5 4.875C4.58579 4.875 4.25 5.21079 4.25 5.625C4.25 6.03921 4.58579 6.375 5 6.375H10C10.4142 6.375 10.75 6.03921 10.75 5.625C10.75 5.21079 10.4142 4.875 10 4.875H5ZM4.25 9.625C4.25 9.21079 4.58579 8.875 5 8.875H15C15.4142 8.875 15.75 9.21079 15.75 9.625C15.75 10.0392 15.4142 10.375 15 10.375H5C4.58579 10.375 4.25 10.0392 4.25 9.625Z" fill="white"/>
</g>
</svg>
