<svg width="21" height="21" viewBox="0 0 21 21" fill="none" xmlns="http://www.w3.org/2000/svg">
<g id="grid">
<path id="combo shape" fill-rule="evenodd" clip-rule="evenodd" d="M2.36719 0.765625C1.26262 0.765625 0.367188 1.66106 0.367188 2.76562V6.76562C0.367188 7.87019 1.26262 8.76562 2.36719 8.76562H6.36719C7.47176 8.76562 8.36719 7.87019 8.36719 6.76562V2.76562C8.36719 1.66106 7.47176 0.765625 6.36719 0.765625H2.36719ZM14.3672 0.765625C13.2626 0.765625 12.3672 1.66106 12.3672 2.76562V6.76562C12.3672 7.87019 13.2626 8.76562 14.3672 8.76562H18.3672C19.4718 8.76562 20.3672 7.87019 20.3672 6.76562V2.76562C20.3672 1.66106 19.4718 0.765625 18.3672 0.765625H14.3672ZM0.367188 14.7656C0.367188 13.6611 1.26262 12.7656 2.36719 12.7656H6.36719C7.47176 12.7656 8.36719 13.6611 8.36719 14.7656V18.7656C8.36719 19.8702 7.47176 20.7656 6.36719 20.7656H2.36719C1.26262 20.7656 0.367188 19.8702 0.367188 18.7656V14.7656ZM14.3672 12.7656C13.2626 12.7656 12.3672 13.6611 12.3672 14.7656V18.7656C12.3672 19.8702 13.2626 20.7656 14.3672 20.7656H18.3672C19.4718 20.7656 20.3672 19.8702 20.3672 18.7656V14.7656C20.3672 13.6611 19.4718 12.7656 18.3672 12.7656H14.3672Z" fill="white"/>
</g>
</svg>
