<svg width="23" height="23" viewBox="0 0 23 23" fill="none" xmlns="http://www.w3.org/2000/svg">
<g id="Frame">
<path id="Vector" d="M4.74005 21.0528C4.21856 21.0528 3.77215 20.8671 3.40079 20.4958C3.02943 20.1244 2.84375 19.678 2.84375 19.1565V5.88244C2.84375 5.36095 3.02943 4.91454 3.40079 4.54318C3.77215 4.17182 4.21856 3.98614 4.74005 3.98614H5.68819V2.08984H7.58449V3.98614H15.1697V2.08984H17.066V3.98614H18.0141C18.5356 3.98614 18.982 4.17182 19.3534 4.54318C19.7247 4.91454 19.9104 5.36095 19.9104 5.88244V19.1565C19.9104 19.678 19.7247 20.1244 19.3534 20.4958C18.982 20.8671 18.5356 21.0528 18.0141 21.0528H4.74005ZM4.74005 19.1565H18.0141V9.67503H4.74005V19.1565ZM4.74005 7.77873H18.0141V5.88244H4.74005V7.77873ZM11.3771 13.4676C11.1084 13.4676 10.8833 13.3768 10.7015 13.195C10.5198 13.0133 10.4289 12.7881 10.4289 12.5195C10.4289 12.2508 10.5198 12.0256 10.7015 11.8439C10.8833 11.6622 11.1084 11.5713 11.3771 11.5713C11.6457 11.5713 11.8709 11.6622 12.0526 11.8439C12.2344 12.0256 12.3252 12.2508 12.3252 12.5195C12.3252 12.7881 12.2344 13.0133 12.0526 13.195C11.8709 13.3768 11.6457 13.4676 11.3771 13.4676ZM7.58449 13.4676C7.31585 13.4676 7.09066 13.3768 6.90894 13.195C6.72721 13.0133 6.63634 12.7881 6.63634 12.5195C6.63634 12.2508 6.72721 12.0256 6.90894 11.8439C7.09066 11.6622 7.31585 11.5713 7.58449 11.5713C7.85313 11.5713 8.07832 11.6622 8.26005 11.8439C8.44178 12.0256 8.53264 12.2508 8.53264 12.5195C8.53264 12.7881 8.44178 13.0133 8.26005 13.195C8.07832 13.3768 7.85313 13.4676 7.58449 13.4676ZM15.1697 13.4676C14.901 13.4676 14.6758 13.3768 14.4941 13.195C14.3124 13.0133 14.2215 12.7881 14.2215 12.5195C14.2215 12.2508 14.3124 12.0256 14.4941 11.8439C14.6758 11.6622 14.901 11.5713 15.1697 11.5713C15.4383 11.5713 15.6635 11.6622 15.8452 11.8439C16.027 12.0256 16.1178 12.2508 16.1178 12.5195C16.1178 12.7881 16.027 13.0133 15.8452 13.195C15.6635 13.3768 15.4383 13.4676 15.1697 13.4676ZM11.3771 17.2602C11.1084 17.2602 10.8833 17.1693 10.7015 16.9876C10.5198 16.8059 10.4289 16.5807 10.4289 16.3121C10.4289 16.0434 10.5198 15.8182 10.7015 15.6365C10.8833 15.4548 11.1084 15.3639 11.3771 15.3639C11.6457 15.3639 11.8709 15.4548 12.0526 15.6365C12.2344 15.8182 12.3252 16.0434 12.3252 16.3121C12.3252 16.5807 12.2344 16.8059 12.0526 16.9876C11.8709 17.1693 11.6457 17.2602 11.3771 17.2602ZM7.58449 17.2602C7.31585 17.2602 7.09066 17.1693 6.90894 16.9876C6.72721 16.8059 6.63634 16.5807 6.63634 16.3121C6.63634 16.0434 6.72721 15.8182 6.90894 15.6365C7.09066 15.4548 7.31585 15.3639 7.58449 15.3639C7.85313 15.3639 8.07832 15.4548 8.26005 15.6365C8.44178 15.8182 8.53264 16.0434 8.53264 16.3121C8.53264 16.5807 8.44178 16.8059 8.26005 16.9876C8.07832 17.1693 7.85313 17.2602 7.58449 17.2602ZM15.1697 17.2602C14.901 17.2602 14.6758 17.1693 14.4941 16.9876C14.3124 16.8059 14.2215 16.5807 14.2215 16.3121C14.2215 16.0434 14.3124 15.8182 14.4941 15.6365C14.6758 15.4548 14.901 15.3639 15.1697 15.3639C15.4383 15.3639 15.6635 15.4548 15.8452 15.6365C16.027 15.8182 16.1178 16.0434 16.1178 16.3121C16.1178 16.5807 16.027 16.8059 15.8452 16.9876C15.6635 17.1693 15.4383 17.2602 15.1697 17.2602Z" fill="#D9D9D9"/>
</g>
</svg>
