<svg width="24" height="24" viewBox="0 0 24 24" fill="none" xmlns="http://www.w3.org/2000/svg">
<g id="Frame">
<path id="Vector" d="M5 20C4.45 20 3.97917 19.8042 3.5875 19.4125C3.19583 19.0208 3 18.55 3 18V6C3 5.45 3.19583 4.97917 3.5875 4.5875C3.97917 4.19583 4.45 4 5 4H19C19.55 4 20.0208 4.19583 20.4125 4.5875C20.8042 4.97917 21 5.45 21 6V18C21 18.55 20.8042 19.0208 20.4125 19.4125C20.0208 19.8042 19.55 20 19 20H5ZM5 18H19V6H5V18ZM7 15H10C10.2833 15 10.5208 14.9042 10.7125 14.7125C10.9042 14.5208 11 14.2833 11 14V13H9.5V13.5H7.5V10.5H9.5V11H11V10C11 9.71667 10.9042 9.47917 10.7125 9.2875C10.5208 9.09583 10.2833 9 10 9H7C6.71667 9 6.47917 9.09583 6.2875 9.2875C6.09583 9.47917 6 9.71667 6 10V14C6 14.2833 6.09583 14.5208 6.2875 14.7125C6.47917 14.9042 6.71667 15 7 15ZM14 15H17C17.2833 15 17.5208 14.9042 17.7125 14.7125C17.9042 14.5208 18 14.2833 18 14V13H16.5V13.5H14.5V10.5H16.5V11H18V10C18 9.71667 17.9042 9.47917 17.7125 9.2875C17.5208 9.09583 17.2833 9 17 9H14C13.7167 9 13.4792 9.09583 13.2875 9.2875C13.0958 9.47917 13 9.71667 13 10V14C13 14.2833 13.0958 14.5208 13.2875 14.7125C13.4792 14.9042 13.7167 15 14 15Z" fill="#D9D9D9"/>
</g>
</svg>
