<svg width="21" height="18" viewBox="0 0 21 18" fill="none" xmlns="http://www.w3.org/2000/svg">
<g id="chat">
<path id="Subtract" fill-rule="evenodd" clip-rule="evenodd" d="M9.45312 0H11.4531C16.4237 0 20.4531 4.02944 20.4531 9C20.4531 13.9706 16.4237 18 11.4531 18H4.45312C2.24399 18 0.453125 16.2091 0.453125 14V9C0.453125 4.02944 4.48256 0 9.45312 0ZM10.4531 10C11.0054 10 11.4531 9.55229 11.4531 9C11.4531 8.44771 11.0054 8 10.4531 8C9.90084 8 9.45312 8.44771 9.45312 9C9.45312 9.55229 9.90084 10 10.4531 10ZM15.4531 9C15.4531 9.55229 15.0054 10 14.4531 10C13.9008 10 13.4531 9.55229 13.4531 9C13.4531 8.44771 13.9008 8 14.4531 8C15.0054 8 15.4531 8.44771 15.4531 9ZM6.45312 10C7.00541 10 7.45312 9.55229 7.45312 9C7.45312 8.44771 7.00541 8 6.45312 8C5.90084 8 5.45312 8.44771 5.45312 9C5.45312 9.55229 5.90084 10 6.45312 10Z" fill="#F3F3F4"/>
</g>
</svg>
