<svg width="14" height="14" viewBox="0 0 14 14" fill="none" xmlns="http://www.w3.org/2000/svg">
<g id="Frame">
<path id="Vector" d="M5.0625 10.375C4.75312 10.375 4.48828 10.2648 4.26797 10.0445C4.04766 9.82422 3.9375 9.55937 3.9375 9.25V2.5C3.9375 2.19062 4.04766 1.92578 4.26797 1.70547C4.48828 1.48516 4.75312 1.375 5.0625 1.375H10.125C10.4344 1.375 10.6992 1.48516 10.9195 1.70547C11.1398 1.92578 11.25 2.19062 11.25 2.5V9.25C11.25 9.55937 11.1398 9.82422 10.9195 10.0445C10.6992 10.2648 10.4344 10.375 10.125 10.375H5.0625ZM2.8125 12.625C2.50312 12.625 2.23828 12.5148 2.01797 12.2945C1.79766 12.0742 1.6875 11.8094 1.6875 11.5V3.625H2.8125V11.5H9V12.625H2.8125Z" fill="#545454"/>
</g>
</svg>
