<svg width="14" height="14" viewBox="0 0 14 14" fill="none" xmlns="http://www.w3.org/2000/svg">
<g id="Frame">
<path id="Vector" d="M5.0625 10.125C4.75312 10.125 4.48828 10.0148 4.26797 9.79453C4.04766 9.57422 3.9375 9.30937 3.9375 9V2.25C3.9375 1.94062 4.04766 1.67578 4.26797 1.45547C4.48828 1.23516 4.75312 1.125 5.0625 1.125H10.125C10.4344 1.125 10.6992 1.23516 10.9195 1.45547C11.1398 1.67578 11.25 1.94062 11.25 2.25V9C11.25 9.30937 11.1398 9.57422 10.9195 9.79453C10.6992 10.0148 10.4344 10.125 10.125 10.125H5.0625ZM2.8125 12.375C2.50312 12.375 2.23828 12.2648 2.01797 12.0445C1.79766 11.8242 1.6875 11.5594 1.6875 11.25V3.375H2.8125V11.25H9V12.375H2.8125Z" fill="white" fill-opacity="0.8"/>
</g>
</svg>
