<svg width="17" height="17" viewBox="0 0 17 17" fill="none" xmlns="http://www.w3.org/2000/svg">
<g id="Frame">
<path id="Vector" d="M6.1875 12.625C5.80937 12.625 5.48568 12.4904 5.21641 12.2211C4.94713 11.9518 4.8125 11.6281 4.8125 11.25V3C4.8125 2.62187 4.94713 2.29818 5.21641 2.02891C5.48568 1.75964 5.80937 1.625 6.1875 1.625H12.375C12.7531 1.625 13.0768 1.75964 13.3461 2.02891C13.6154 2.29818 13.75 2.62187 13.75 3V11.25C13.75 11.6281 13.6154 11.9518 13.3461 12.2211C13.0768 12.4904 12.7531 12.625 12.375 12.625H6.1875ZM3.4375 15.375C3.05937 15.375 2.73568 15.2404 2.46641 14.9711C2.19714 14.7018 2.0625 14.3781 2.0625 14V4.375H3.4375V14H11V15.375H3.4375Z" fill="#BABABA" fill-opacity="0.8"/>
</g>
</svg>
