<svg width="25" height="25" viewBox="0 0 25 25" fill="none" xmlns="http://www.w3.org/2000/svg">
<g id="Frame">
<path id="Vector" d="M16.0114 11.5479C16.4597 11.5479 16.8391 11.398 17.1496 11.0984C17.4602 10.7989 17.6155 10.4328 17.6155 10.0001C17.6155 9.56746 17.4602 9.20138 17.1496 8.90188C16.8391 8.60221 16.4607 8.45238 16.0145 8.45238C15.5682 8.45238 15.1898 8.60271 14.8792 8.90338C14.5686 9.20404 14.4134 9.56913 14.4134 9.99863C14.4134 10.4283 14.5687 10.794 14.8795 11.0956C15.1902 11.3971 15.5675 11.5479 16.0114 11.5479ZM8.85276 11.5479C9.29908 11.5479 9.67753 11.3975 9.98809 11.0969C10.2987 10.7962 10.4539 10.4311 10.4539 10.0016C10.4539 9.57196 10.2986 9.20629 9.98783 8.90463C9.6771 8.60313 9.29977 8.45238 8.85586 8.45238C8.40764 8.45238 8.02824 8.60221 7.71768 8.90188C7.40712 9.20138 7.25183 9.56746 7.25183 10.0001C7.25183 10.4328 7.40712 10.7989 7.71768 11.0984C8.02824 11.398 8.4066 11.5479 8.85276 11.5479ZM12.4337 18.0001C13.6248 18.0001 14.7028 17.6723 15.6676 17.0166C16.6323 16.3611 17.3265 15.4984 17.7502 14.4284H7.11711C7.54081 15.4984 8.235 16.3611 9.19968 17.0166C10.1645 17.6723 11.2425 18.0001 12.4337 18.0001ZM12.4331 22.7034C10.971 22.7034 9.59704 22.4359 8.31126 21.9009C7.02565 21.3659 5.90612 20.6385 4.95266 19.7186C3.99938 18.7986 3.24551 17.7182 2.69106 16.4774C2.1366 15.2364 1.85938 13.9105 1.85938 12.4996C1.85938 11.0888 2.1366 9.76304 2.69106 8.52238C3.24551 7.28188 3.99938 6.20163 4.95266 5.28163C5.90612 4.36179 7.02582 3.63437 8.31177 3.09937C9.5979 2.56437 10.972 2.29688 12.4342 2.29688C13.8963 2.29688 15.2703 2.56437 16.556 3.09937C17.8417 3.63437 18.9612 4.36179 19.9146 5.28163C20.8679 6.20163 21.6218 7.28204 22.1762 8.52287C22.7307 9.76387 23.0079 11.0898 23.0079 12.5006C23.0079 13.9115 22.7307 15.2372 22.1762 16.4779C21.6218 17.7184 20.8679 18.7986 19.9146 19.7186C18.9612 20.6385 17.8415 21.3659 16.5555 21.9009C15.2694 22.4359 13.8953 22.7034 12.4331 22.7034Z" fill="#F3F3F4"/>
</g>
</svg>
