<svg width="26" height="24" viewBox="0 0 26 24" fill="none" xmlns="http://www.w3.org/2000/svg">
<g id="Frame">
<path id="Vector" d="M16.3425 11C16.7743 11 17.1413 10.8542 17.4436 10.5625C17.7459 10.2708 17.897 9.91667 17.897 9.5C17.897 9.08333 17.7459 8.72917 17.4436 8.4375C17.1413 8.14583 16.7743 8 16.3425 8C15.9107 8 15.5436 8.14583 15.2413 8.4375C14.9391 8.72917 14.7879 9.08333 14.7879 9.5C14.7879 9.91667 14.9391 10.2708 15.2413 10.5625C15.5436 10.8542 15.9107 11 16.3425 11ZM9.08793 11C9.51974 11 9.88679 10.8542 10.1891 10.5625C10.4913 10.2708 10.6425 9.91667 10.6425 9.5C10.6425 9.08333 10.4913 8.72917 10.1891 8.4375C9.88679 8.14583 9.51974 8 9.08793 8C8.65611 8 8.28906 8.14583 7.98679 8.4375C7.68452 8.72917 7.53338 9.08333 7.53338 9.5C7.53338 9.91667 7.68452 10.2708 7.98679 10.5625C8.28906 10.8542 8.65611 11 9.08793 11ZM12.7152 17.5C13.8897 17.5 14.9563 17.1792 15.915 16.5375C16.8736 15.8958 17.5688 15.05 18.0007 14H7.42974C7.86156 15.05 8.55679 15.8958 9.51543 16.5375C10.4741 17.1792 11.5407 17.5 12.7152 17.5ZM12.7152 22C11.2816 22 9.93429 21.7375 8.67338 21.2125C7.41247 20.6875 6.31565 19.975 5.38293 19.075C4.4502 18.175 3.71179 17.1167 3.1677 15.9C2.62361 14.6833 2.35156 13.3833 2.35156 12C2.35156 10.6167 2.62361 9.31667 3.1677 8.1C3.71179 6.88333 4.4502 5.825 5.38293 4.925C6.31565 4.025 7.41247 3.3125 8.67338 2.7875C9.93429 2.2625 11.2816 2 12.7152 2C14.1488 2 15.4961 2.2625 16.757 2.7875C18.0179 3.3125 19.1147 4.025 20.0475 4.925C20.9802 5.825 21.7186 6.88333 22.2627 8.1C22.8068 9.31667 23.0788 10.6167 23.0788 12C23.0788 13.3833 22.8068 14.6833 22.2627 15.9C21.7186 17.1167 20.9802 18.175 20.0475 19.075C19.1147 19.975 18.0179 20.6875 16.757 21.2125C15.4961 21.7375 14.1488 22 12.7152 22ZM12.7152 20C15.0297 20 16.9902 19.225 18.5966 17.675C20.2029 16.125 21.0061 14.2333 21.0061 12C21.0061 9.76667 20.2029 7.875 18.5966 6.325C16.9902 4.775 15.0297 4 12.7152 4C10.4007 4 8.4402 4.775 6.83384 6.325C5.22747 7.875 4.42429 9.76667 4.42429 12C4.42429 14.2333 5.22747 16.125 6.83384 17.675C8.4402 19.225 10.4007 20 12.7152 20Z" fill="#F3F3F4"/>
</g>
</svg>
