<svg width="21" height="20" viewBox="0 0 21 20" fill="none" xmlns="http://www.w3.org/2000/svg">
<g id="multiply-rectangle">
<path id="Combo shape" fill-rule="evenodd" clip-rule="evenodd" d="M0.734375 4C0.734375 1.79086 2.52524 0 4.73438 0H16.7344C18.9435 0 20.7344 1.79086 20.7344 4V16C20.7344 18.2091 18.9435 20 16.7344 20H4.73437C2.52524 20 0.734375 18.2091 0.734375 16V4ZM7.37568 6.6413C7.66857 6.34841 8.14344 6.34841 8.43634 6.6413L10.7344 8.93934L13.0324 6.6413C13.3253 6.34841 13.8002 6.34841 14.0931 6.6413C14.386 6.93419 14.386 7.40907 14.0931 7.70196L11.795 10L14.0932 12.2982C14.3861 12.591 14.3861 13.0659 14.0932 13.3588C13.8003 13.6517 13.3254 13.6517 13.0325 13.3588L10.7344 11.0607L8.43622 13.3588C8.14333 13.6517 7.66845 13.6517 7.37556 13.3588C7.08267 13.0659 7.08267 12.591 7.37556 12.2982L9.67371 10L7.37568 7.70196C7.08278 7.40907 7.08278 6.93419 7.37568 6.6413Z" fill="#F3F3F4"/>
</g>
</svg>
