<svg width="24" height="24" viewBox="0 0 24 24" fill="none" xmlns="http://www.w3.org/2000/svg">
<path id="Vector" d="M5 23.2652C3.61667 23.2652 2.4375 22.7778 1.4625 21.8027C0.4875 20.8277 0 19.6486 0 18.2652H1.61975C1.61975 19.1999 1.94942 19.997 2.60875 20.6565C3.26825 21.3158 4.06533 21.6455 5 21.6455V23.2652ZM9.4925 23.02C8.9805 23.02 8.50092 22.9045 8.05375 22.6735C7.60642 22.4425 7.23908 22.1128 6.95175 21.6842L0.6125 12.1917L1.2425 11.6167C1.57917 11.3001 1.97308 11.1158 2.42425 11.0638C2.87558 11.0118 3.30417 11.1267 3.71 11.4085L6.36475 13.2482V3.70925C6.36475 3.40592 6.46858 3.15042 6.67625 2.94275C6.88375 2.73525 7.13917 2.6315 7.4425 2.6315C7.74583 2.6315 8.00125 2.73525 8.20875 2.94275C8.41642 3.15042 8.52025 3.40592 8.52025 3.70925V11.9005H10.4068V1.66125C10.4068 1.35808 10.5105 1.10267 10.718 0.895C10.9257 0.687333 11.1811 0.583499 11.4843 0.583499C11.7876 0.583499 12.0431 0.687333 12.2508 0.895C12.4583 1.10267 12.562 1.35808 12.562 1.66125V11.9005H14.4485V2.69725C14.4485 2.39392 14.5523 2.1385 14.76 1.931C14.9675 1.72333 15.2229 1.6195 15.5262 1.6195C15.8294 1.6195 16.0848 1.72333 16.2925 1.931C16.5002 2.1385 16.604 2.39392 16.604 2.69725V11.9005H18.4902V4.69725C18.4902 4.39392 18.5941 4.1385 18.8018 3.931C19.0094 3.72333 19.2648 3.6195 19.568 3.6195C19.8713 3.6195 20.1268 3.72333 20.3342 3.931C20.5419 4.1385 20.6458 4.39392 20.6458 4.69725V18.9422C20.6458 20.0662 20.2471 21.0268 19.4498 21.824C18.6526 22.6213 17.692 23.02 16.568 23.02H9.4925ZM21.885 4.525C21.885 3.71083 21.6042 3.023 21.0428 2.4615C20.4814 1.90017 19.7937 1.6195 18.9795 1.6195V0C20.2295 0 21.2962 0.441667 22.1795 1.325C23.0628 2.20833 23.5045 3.275 23.5045 4.525H21.885Z" fill="#F3F3F4"/>
</svg>
