<svg width="24" height="24" viewBox="0 0 24 24" fill="none" xmlns="http://www.w3.org/2000/svg">
<g id="Frame">
<path id="Vector" d="M6 23C4.61667 23 3.4375 22.5125 2.4625 21.5375C1.4875 20.5625 1 19.3833 1 18H2.5C2.5 18.9667 2.84167 19.7917 3.525 20.475C4.20833 21.1583 5.03333 21.5 6 21.5V23ZM10.05 23C9.55 23 9.08333 22.8875 8.65 22.6625C8.21667 22.4375 7.85833 22.1167 7.575 21.7L1.2 12.375L1.8 11.8C2.11667 11.4833 2.49167 11.3 2.925 11.25C3.35833 11.2 3.75 11.3 4.1 11.55L7 13.575V4C7 3.71667 7.09583 3.47917 7.2875 3.2875C7.47917 3.09583 7.71667 3 8 3C8.28333 3 8.52083 3.09583 8.7125 3.2875C8.90417 3.47917 9 3.71667 9 4V12H11V2C11 1.71667 11.0958 1.47917 11.2875 1.2875C11.4792 1.09583 11.7167 1 12 1C12.2833 1 12.5208 1.09583 12.7125 1.2875C12.9042 1.47917 13 1.71667 13 2V12H15V3C15 2.71667 15.0958 2.47917 15.2875 2.2875C15.4792 2.09583 15.7167 2 16 2C16.2833 2 16.5208 2.09583 16.7125 2.2875C16.9042 2.47917 17 2.71667 17 3V12H19V5C19 4.71667 19.0958 4.47917 19.2875 4.2875C19.4792 4.09583 19.7167 4 20 4C20.2833 4 20.5208 4.09583 20.7125 4.2875C20.9042 4.47917 21 4.71667 21 5V19C21 20.1 20.6083 21.0417 19.825 21.825C19.0417 22.6083 18.1 23 17 23H10.05ZM22 5.025C22 4.175 21.7083 3.45833 21.125 2.875C20.5417 2.29167 19.825 2 18.975 2V0.5C20.225 0.5 21.2917 0.941667 22.175 1.825C23.0583 2.70833 23.5 3.775 23.5 5.025H22Z" fill="#FFCB05"/>
</g>
</svg>
