<svg width="25" height="24" viewBox="0 0 25 24" fill="none" xmlns="http://www.w3.org/2000/svg">
<g id="Frame">
<path id="Vector" d="M22.2344 5.025C22.2344 4.175 21.9427 3.45833 21.3594 2.875C20.776 2.29167 20.0594 2 19.2094 2V0.5C20.4594 0.5 21.526 0.941667 22.4094 1.825C23.2927 2.70833 23.7344 3.775 23.7344 5.025H22.2344ZM6.23438 23C4.85104 23 3.67188 22.5125 2.69687 21.5375C1.72188 20.5625 1.23438 19.3833 1.23438 18H2.73438C2.73438 18.9667 3.07604 19.7917 3.75938 20.475C4.44271 21.1583 5.26771 21.5 6.23438 21.5V23ZM10.2844 23C9.78438 23 9.31771 22.8875 8.88438 22.6625C8.45104 22.4375 8.09271 22.1167 7.80938 21.7L1.43438 12.375L2.03438 11.8C2.35104 11.4833 2.72604 11.3 3.15938 11.25C3.59271 11.2 3.98438 11.3 4.33438 11.55L7.23438 13.575V4C7.23438 3.71667 7.33021 3.47917 7.52187 3.2875C7.71354 3.09583 7.95104 3 8.23438 3C8.51771 3 8.75521 3.09583 8.94688 3.2875C9.13854 3.47917 9.23438 3.71667 9.23438 4V17.425L5.53438 14.825L9.45938 20.55C9.54271 20.6833 9.65938 20.7917 9.80937 20.875C9.95938 20.9583 10.1177 21 10.2844 21H17.2344C17.7844 21 18.2552 20.8042 18.6469 20.4125C19.0385 20.0208 19.2344 19.55 19.2344 19V5C19.2344 4.71667 19.3302 4.47917 19.5219 4.2875C19.7135 4.09583 19.951 4 20.2344 4C20.5177 4 20.7552 4.09583 20.9469 4.2875C21.1385 4.47917 21.2344 4.71667 21.2344 5V19C21.2344 20.1 20.8427 21.0417 20.0594 21.825C19.276 22.6083 18.3344 23 17.2344 23H10.2844ZM11.2344 12V2C11.2344 1.71667 11.3302 1.47917 11.5219 1.2875C11.7135 1.09583 11.951 1 12.2344 1C12.5177 1 12.7552 1.09583 12.9469 1.2875C13.1385 1.47917 13.2344 1.71667 13.2344 2V12H11.2344ZM15.2344 12V3C15.2344 2.71667 15.3302 2.47917 15.5219 2.2875C15.7135 2.09583 15.951 2 16.2344 2C16.5177 2 16.7552 2.09583 16.9469 2.2875C17.1385 2.47917 17.2344 2.71667 17.2344 3V12H15.2344Z" fill="#F3F3F4"/>
</g>
</svg>
