<svg width="21" height="22" viewBox="0 0 21 22" fill="none" xmlns="http://www.w3.org/2000/svg">
<g id="Group 56">
<path id="Vector" d="M16.6682 17.6938L17.2887 17.3263C18.5749 16.5646 19.3672 15.157 19.3672 13.6337V7.89755C19.3672 6.37422 18.5749 4.96661 17.2887 4.20495L12.4456 1.33687C11.1595 0.575209 9.57488 0.575209 8.28873 1.33687L3.44565 4.20495C2.15949 4.96661 1.36719 6.37422 1.36719 7.89755V13.6337C1.36719 15.157 2.15949 16.5646 3.44565 17.3263L4.06615 17.6938M16.6682 17.6938L12.4456 20.1944C11.1595 20.956 9.57488 20.956 8.28873 20.1944L4.06615 17.6938M16.6682 17.6938C15.4103 15.4638 13.0596 13.9635 10.3672 13.9635C7.67481 13.9635 5.32405 15.4638 4.06615 17.6938" stroke="white" stroke-width="1.5" stroke-linejoin="round"/>
<circle id="Ellipse 260" cx="3" cy="3" r="3" transform="matrix(1 0 0 -1 7.36719 10.7656)" stroke="white" stroke-width="1.5" stroke-linejoin="round"/>
</g>
</svg>
