<svg width="19" height="19" viewBox="0 0 19 19" fill="none" xmlns="http://www.w3.org/2000/svg">
<g id="user-add">
<path id="combo shape" fill-rule="evenodd" clip-rule="evenodd" d="M11.3672 4.26562C11.3672 6.47476 9.57633 8.26562 7.36719 8.26562C5.15805 8.26562 3.36719 6.47476 3.36719 4.26562C3.36719 2.05649 5.15805 0.265625 7.36719 0.265625C9.57633 0.265625 11.3672 2.05649 11.3672 4.26562ZM14.3672 14.2656C14.3672 16.4748 11.2332 18.2656 7.36719 18.2656C3.50119 18.2656 0.367188 16.4748 0.367188 14.2656C0.367188 12.0565 3.50119 10.2656 7.36719 10.2656C11.2332 10.2656 14.3672 12.0565 14.3672 14.2656ZM15.3672 10.0156C14.953 10.0156 14.6172 9.67984 14.6172 9.26562V8.01562H13.3672C12.953 8.01562 12.6172 7.67984 12.6172 7.26562C12.6172 6.85141 12.953 6.51562 13.3672 6.51562H14.6172V5.26562C14.6172 4.85141 14.953 4.51562 15.3672 4.51562C15.7814 4.51562 16.1172 4.85141 16.1172 5.26562V6.51562H17.3672C17.7814 6.51562 18.1172 6.85141 18.1172 7.26562C18.1172 7.67984 17.7814 8.01562 17.3672 8.01562H16.1172V9.26562C16.1172 9.67984 15.7814 10.0156 15.3672 10.0156Z" fill="white"/>
</g>
</svg>
