<svg width="20" height="18" viewBox="0 0 20 18" fill="none" xmlns="http://www.w3.org/2000/svg">
<g id="mail notification">
<path id="Combo shape" fill-rule="evenodd" clip-rule="evenodd" d="M13.6458 0H4C1.79086 0 0 1.79086 0 4V14C0 16.2091 1.79086 18 4 18H16C18.2091 18 20 16.2091 20 14V6.35416C19.2039 7.06672 18.1525 7.5 17 7.5C14.5147 7.5 12.5 5.48528 12.5 3C12.5 1.84747 12.9333 0.796135 13.6458 0ZM3.37597 4.58393C3.60573 4.23929 4.07138 4.14616 4.41603 4.37592L8.19723 6.89672C9.2889 7.6245 10.7111 7.6245 11.8028 6.89672L12.2931 6.56981C12.6378 6.34005 13.1034 6.43318 13.3332 6.77783C13.563 7.12247 13.4698 7.58812 13.1252 7.81789L12.6348 8.1448C11.0393 9.20848 8.9607 9.20848 7.36518 8.14479L3.58398 5.624C3.23933 5.39423 3.1462 4.92858 3.37597 4.58393ZM17 6C18.6569 6 20 4.65685 20 3C20 1.34315 18.6569 0 17 0C15.3431 0 14 1.34315 14 3C14 4.65685 15.3431 6 17 6Z" fill="white"/>
</g>
</svg>
