<svg width="21" height="23" viewBox="0 0 21 23" fill="none" xmlns="http://www.w3.org/2000/svg">
<g id="Huge-icon/notes and task/outline/notes-edit 01" clip-path="url(#clip0_16160_56797)">
<path id="Vector" d="M18.3827 9.38917V7.09751C18.3827 5.07247 16.818 3.43085 14.8879 3.43085H6.15101C4.22091 3.43085 2.65625 5.07247 2.65625 7.09751V16.7225C2.65625 18.7475 4.22091 20.3892 6.15101 20.3892H7.89839M7.0247 2.05585V4.80584M14.0142 8.4725H7.0247M12.2668 12.1392H7.0247M8.77208 15.8058H7.0247M14.0142 2.05585V4.80584" stroke="white" stroke-width="1.5" stroke-linecap="round"/>
<g id="Vector_2">
<path fill-rule="evenodd" clip-rule="evenodd" d="M14.5353 13.3515C14.7655 13.3515 14.9699 13.5144 15.0427 13.7559L15.8274 16.3584L18.1814 17.2259C18.3998 17.3064 18.5471 17.5324 18.5471 17.787C18.5471 18.0415 18.3998 18.2675 18.1814 18.348L15.8274 19.2155L15.0427 21.8181C14.9699 22.0596 14.7655 22.2225 14.5353 22.2225C14.305 22.2225 14.1006 22.0596 14.0278 21.8181L13.2432 19.2155L10.8892 18.348C10.6708 18.2675 10.5234 18.0415 10.5234 17.787C10.5234 17.5324 10.6708 17.3064 10.8892 17.2259L13.2432 16.3584L14.0278 13.7559C14.1006 13.5144 14.305 13.3515 14.5353 13.3515ZM14.5353 15.8131L14.1735 17.013C14.1203 17.1896 13.9949 17.3281 13.8352 17.387L12.7499 17.787L13.8352 18.187C13.9949 18.2458 14.1203 18.3844 14.1735 18.561L14.5353 19.7609L14.897 18.561C14.9503 18.3844 15.0756 18.2458 15.2354 18.187L16.3207 17.787L15.2354 17.387C15.0756 17.3281 14.9503 17.1896 14.897 17.013L14.5353 15.8131Z" fill="white"/>
<path fill-rule="evenodd" clip-rule="evenodd" d="M18.8146 11.2225C18.9527 11.2225 19.0754 11.3202 19.1191 11.4651L19.5364 12.8492L20.7883 13.3106C20.9193 13.3589 21.0077 13.4945 21.0077 13.6472C21.0077 13.7999 20.9193 13.9355 20.7883 13.9838L19.5364 14.4452L19.1191 15.8293C19.0754 15.9742 18.9527 16.0719 18.8146 16.0719C18.6764 16.0719 18.5538 15.9742 18.5101 15.8293L18.0928 14.4452L16.8409 13.9838C16.7098 13.9355 16.6214 13.7999 16.6214 13.6472C16.6214 13.4945 16.7098 13.3589 16.8409 13.3106L18.0928 12.8492L18.5101 11.4651C18.5538 11.3202 18.6764 11.2225 18.8146 11.2225Z" fill="white"/>
</g>
</g>
<defs>
<clipPath id="clip0_16160_56797">
<rect width="20.9685" height="22" fill="white" transform="translate(0.0390625 0.222504)"/>
</clipPath>
</defs>
</svg>
