<svg width="16" height="18" viewBox="0 0 16 18" fill="none" xmlns="http://www.w3.org/2000/svg">
<g id="notification">
<path id="combo shape" fill-rule="evenodd" clip-rule="evenodd" d="M8 0C4.77095 0 2.05382 2.49085 1.67964 5.79403L1.33476 8.8385C1.24906 9.59498 0.942464 10.3069 0.455492 10.88C-0.577914 12.0964 0.260813 14 1.83014 14H14.1699C15.7392 14 16.5779 12.0964 15.5445 10.88C15.0575 10.3069 14.7509 9.59499 14.6652 8.8385L14.3204 5.79403C13.9462 2.49085 11.2291 0 8 0ZM10.9721 16.0715C10.5147 17.1992 9.35653 18 8 18C6.64347 18 5.48526 17.1992 5.02789 16.0715C5.00883 16.0245 5 15.974 5 15.9233C5 15.6895 5.18951 15.5 5.42329 15.5H10.5767C10.8105 15.5 11 15.6895 11 15.9233C11 15.974 10.9912 16.0245 10.9721 16.0715Z" fill="white"/>
</g>
</svg>
