<svg width="25" height="25" viewBox="0 0 25 25" fill="none" xmlns="http://www.w3.org/2000/svg">
<g id="Frame" clip-path="url(#clip0_16389_16516)">
<path id="Vector" d="M20.2431 11.4329H19.7031V11.0329H18.3698V12.7662H20.2431C20.7561 12.7513 21.2566 12.926 21.6489 13.2568C22.0412 13.5876 22.2979 14.0514 22.3698 14.5596C22.3957 14.8383 22.3629 15.1195 22.2733 15.3848C22.1837 15.65 22.0394 15.8936 21.8498 16.0996C21.6634 16.308 21.4354 16.475 21.1805 16.5898C20.9255 16.7046 20.6494 16.7647 20.3698 16.7662H18.3698V21.9862H3.03646V17.4329H3.70312C4.171 17.4353 4.63416 17.3392 5.06245 17.1509C5.49074 16.9625 5.87459 16.6861 6.18901 16.3396C6.50343 15.9931 6.74138 15.5843 6.88739 15.1398C7.0334 14.6953 7.08419 14.225 7.03646 13.7596C6.92841 12.9226 6.5159 12.1547 5.87769 11.6026C5.23947 11.0505 4.42026 10.7527 3.57646 10.7662H3.03646V6.65289H9.03646V5.43289C9.03796 5.1533 9.09806 4.87714 9.21289 4.62222C9.32772 4.3673 9.49473 4.13928 9.70312 3.95289C9.90912 3.76325 10.1526 3.61897 10.4179 3.52939C10.6832 3.43982 10.9643 3.40694 11.2431 3.43289C11.7512 3.50482 12.215 3.76147 12.5459 4.15379C12.8767 4.54611 13.0514 5.04659 13.0365 5.55956V6.65289H13.4765L14.3698 5.15956C14.2947 4.3846 13.9569 3.6586 13.4124 3.10202C12.868 2.54545 12.1496 2.19173 11.3765 2.09956C10.9204 2.05261 10.4596 2.10023 10.0228 2.23947C9.58596 2.3787 9.18257 2.60654 8.83781 2.90875C8.49306 3.21096 8.21435 3.58104 8.01911 3.99585C7.82387 4.41066 7.7163 4.86129 7.70312 5.31956H3.03646C2.68284 5.31956 2.3437 5.46003 2.09365 5.71008C1.8436 5.96013 1.70313 6.29927 1.70312 6.65289V12.0996H3.57646C4.08943 12.0847 4.58991 12.2593 4.98223 12.5901C5.37455 12.921 5.6312 13.3848 5.70312 13.8929C5.72908 14.1717 5.6962 14.4528 5.60663 14.7181C5.51705 14.9834 5.37277 15.2269 5.18312 15.4329C4.99673 15.6413 4.76872 15.8083 4.5138 15.9231C4.25888 16.038 3.98271 16.0981 3.70312 16.0996H1.70312V21.9862C1.70313 22.3398 1.8436 22.679 2.09365 22.929C2.3437 23.1791 2.68284 23.3196 3.03646 23.3196H18.3698C18.7234 23.3196 19.0626 23.1791 19.3126 22.929C19.5626 22.679 19.7031 22.3398 19.7031 21.9862V18.0996H20.3698C20.8377 18.102 21.3008 18.0059 21.7291 17.8176C22.1574 17.6292 22.5413 17.3528 22.8557 17.0063C23.1701 16.6598 23.408 16.251 23.5541 15.8065C23.7001 15.3619 23.7509 14.8917 23.7031 14.4262C23.5951 13.5893 23.1826 12.8214 22.5444 12.2693C21.9061 11.7171 21.0869 11.4194 20.2431 11.4329Z" fill="white"/>
<path id="Vector_2" d="M18.2661 1.52615L14.4528 8.09948C14.3641 8.2297 14.3132 8.38195 14.3057 8.53934C14.2982 8.69673 14.3344 8.85312 14.4103 8.99119C14.4863 9.12925 14.5989 9.24359 14.7359 9.32154C14.8728 9.3995 15.0287 9.43801 15.1861 9.43282H22.8195C22.977 9.43801 23.1328 9.3995 23.2697 9.32154C23.4067 9.24359 23.5194 9.12925 23.5953 8.99119C23.6712 8.85312 23.7074 8.69673 23.7 8.53934C23.6925 8.38195 23.6415 8.2297 23.5528 8.09948L19.7395 1.52615C19.6643 1.39752 19.5567 1.29083 19.4274 1.21668C19.2982 1.14253 19.1518 1.10352 19.0028 1.10352C18.8538 1.10352 18.7074 1.14253 18.5782 1.21668C18.4489 1.29083 18.3413 1.39752 18.2661 1.52615Z" fill="white"/>
</g>
<defs>
<clipPath id="clip0_16389_16516">
<rect width="24" height="24" fill="white" transform="translate(0.367188 0.765625)"/>
</clipPath>
</defs>
</svg>
