<svg width="40" height="40" viewBox="0 0 40 40" fill="none" xmlns="http://www.w3.org/2000/svg">
<g id="Frame">
<path id="Vector" d="M8.33333 36.6673C7.41667 36.6673 6.63194 36.3409 5.97917 35.6881C5.32639 35.0354 5 34.2506 5 33.334V10.0007C5 9.08398 5.32639 8.29926 5.97917 7.64648C6.63194 6.99371 7.41667 6.66732 8.33333 6.66732H10V3.33398H13.3333V6.66732H26.6667V3.33398H30V6.66732H31.6667C32.5833 6.66732 33.3681 6.99371 34.0208 7.64648C34.6736 8.29926 35 9.08398 35 10.0007V18.334H31.6667V16.6673H8.33333V33.334H20V36.6673H8.33333ZM23.3333 36.6673V31.5423L32.5417 22.3757C32.7917 22.1257 33.0694 21.9451 33.375 21.834C33.6806 21.7229 33.9861 21.6673 34.2917 21.6673C34.625 21.6673 34.9444 21.7298 35.25 21.8548C35.5556 21.9798 35.8333 22.1673 36.0833 22.4173L37.625 23.959C37.8472 24.209 38.0208 24.4868 38.1458 24.7923C38.2708 25.0979 38.3333 25.4034 38.3333 25.709C38.3333 26.0145 38.2778 26.327 38.1667 26.6465C38.0556 26.9659 37.875 27.2507 37.625 27.5007L28.4583 36.6673H23.3333ZM34.2917 27.334L35.8333 25.709L34.2917 24.1673L32.7083 25.7507L34.2917 27.334Z" fill="#007DC5"/>
</g>
</svg>
