<svg width="24" height="24" viewBox="0 0 24 24" fill="none" xmlns="http://www.w3.org/2000/svg">
<g id="Outline/Send">
<path id="Vector" fill-rule="evenodd" clip-rule="evenodd" d="M4.70222 3.19511C5.09605 3.12491 5.50201 3.18251 5.86077 3.35949L5.86866 3.36339L20.1291 10.6077C20.345 10.7175 20.5267 10.8851 20.6533 11.0915C20.7785 11.2958 20.8455 11.5304 20.8469 11.7698C20.847 11.7723 20.847 11.7748 20.847 11.7773L20.847 11.78C20.8465 12.0214 20.7795 12.2581 20.6533 12.4639C20.5267 12.6704 20.3454 12.8378 20.1295 12.9476L5.86079 20.2058C5.50203 20.3827 5.09605 20.4403 4.70222 20.3701C4.3084 20.2999 3.94734 20.1056 3.67183 19.8155C3.39632 19.5255 3.22079 19.155 3.17089 18.758C3.121 18.3611 3.19936 17.9587 3.39452 17.6095C3.39935 17.6008 3.40435 17.5923 3.40952 17.5838L6.96318 11.7777L3.40981 5.98186C3.40454 5.97326 3.39944 5.96455 3.39452 5.95574C3.19936 5.60654 3.121 5.20407 3.17089 4.80716C3.22079 4.41025 3.39632 4.0397 3.67183 3.74966C3.94734 3.45963 4.3084 3.26531 4.70222 3.19511ZM18.3243 11.0273L5.19426 4.7033C5.12322 4.66901 5.04315 4.65798 4.96544 4.67184C4.88668 4.68587 4.81447 4.72474 4.75937 4.78275C4.70426 4.84075 4.66916 4.91486 4.65918 4.99424C4.64966 5.06996 4.66348 5.14668 4.69864 5.21421L8.43772 11.0273H18.3243ZM8.40055 12.5273H18.3248L5.19411 18.862C5.12311 18.8962 5.0431 18.9072 4.96544 18.8934C4.88668 18.8793 4.81447 18.8405 4.75937 18.7825C4.70426 18.7244 4.66916 18.6503 4.65918 18.571C4.64965 18.4952 4.6635 18.4184 4.69873 18.3508L8.40055 12.5273Z" fill="#C5C6D0"/>
</g>
</svg>
