<svg width="25" height="25" viewBox="0 0 25 25" fill="none" xmlns="http://www.w3.org/2000/svg">
<g id="Huge-icon/interface/outline/setting">
<path id="Vector" d="M21.1111 16.4862L20.4715 16.0945V16.0945L21.1111 16.4862ZM20.1565 18.045L20.7962 18.4367V18.4367L20.1565 18.045ZM3.62328 9.04504L2.98367 8.65338H2.98367L3.62328 9.04504ZM4.57783 7.4862L5.21744 7.87786L4.57783 7.4862ZM7.1857 6.82735L7.54429 6.16862L7.54428 6.16862L7.1857 6.82735ZM4.32206 11.5039L3.96347 12.1626H3.96347L4.32206 11.5039ZM17.5487 18.7039L17.1901 19.3626L17.1901 19.3626L17.5487 18.7039ZM20.4123 14.0273L20.0537 14.6861V14.6861L20.4123 14.0273ZM4.57783 18.0451L3.93822 18.4367L3.93822 18.4367L4.57783 18.0451ZM3.62328 16.4862L4.26289 16.0945L4.26289 16.0945L3.62328 16.4862ZM20.1565 7.48621L20.7962 7.09455V7.09455L20.1565 7.48621ZM21.1111 9.04505L20.4715 9.43672V9.43672L21.1111 9.04505ZM20.4123 11.5039L20.7709 12.1626L20.4123 11.5039ZM17.5487 6.82736L17.9073 7.48609V7.48609L17.5487 6.82736ZM4.32206 14.0274L4.68064 14.6861H4.68064L4.32206 14.0274ZM7.1857 18.7039L6.82712 18.0452L6.82712 18.0452L7.1857 18.7039ZM17.4472 6.8826L17.0886 6.22388L17.4472 6.8826ZM7.28719 6.88259L6.92861 7.54132L6.92861 7.54132L7.28719 6.88259ZM17.4472 18.6486L17.8058 17.9899L17.8058 17.9899L17.4472 18.6486ZM7.28719 18.6487L7.64577 19.3074L7.64577 19.3074L7.28719 18.6487ZM11.4126 4.51562H13.3217V3.01562H11.4126V4.51562ZM13.3217 21.0156H11.4126V22.5156H13.3217V21.0156ZM11.4126 21.0156C10.7303 21.0156 10.2535 20.5046 10.2535 19.9656H8.75354C8.75354 21.4149 9.98625 22.5156 11.4126 22.5156V21.0156ZM14.4808 19.9656C14.4808 20.5046 14.0041 21.0156 13.3217 21.0156V22.5156C14.7481 22.5156 15.9808 21.4149 15.9808 19.9656H14.4808ZM13.3217 4.51562C14.0041 4.51562 14.4808 5.02669 14.4808 5.56562H15.9808C15.9808 4.11633 14.7481 3.01562 13.3217 3.01562V4.51562ZM11.4126 3.01562C9.98625 3.01562 8.75354 4.11633 8.75354 5.56563H10.2535C10.2535 5.02669 10.7303 4.51562 11.4126 4.51562V3.01562ZM20.4715 16.0945L19.5169 17.6534L20.7962 18.4367L21.7507 16.8779L20.4715 16.0945ZM4.26289 9.4367L5.21744 7.87786L3.93822 7.09453L2.98367 8.65338L4.26289 9.4367ZM5.21744 7.87786C5.52608 7.37383 6.24773 7.17068 6.82712 7.48608L7.54428 6.16862C6.29746 5.48991 4.68394 5.87671 3.93822 7.09453L5.21744 7.87786ZM4.68064 10.8452C4.12465 10.5425 3.97149 9.91258 4.26289 9.4367L2.98367 8.65338C2.22071 9.89935 2.69325 11.4712 3.96347 12.1626L4.68064 10.8452ZM19.5169 17.6534C19.2083 18.1574 18.4866 18.3606 17.9073 18.0452L17.1901 19.3626C18.4369 20.0413 20.0504 19.6545 20.7962 18.4367L19.5169 17.6534ZM21.7507 16.8779C22.5137 15.6319 22.0411 14.0601 20.7709 13.3686L20.0537 14.6861C20.6097 14.9887 20.7629 15.6187 20.4715 16.0945L21.7507 16.8779ZM5.21744 17.6534L4.26289 16.0945L2.98367 16.8779L3.93822 18.4367L5.21744 17.6534ZM19.5169 7.87787L20.4715 9.43672L21.7507 8.65339L20.7962 7.09455L19.5169 7.87787ZM20.4715 9.43672C20.7629 9.9126 20.6097 10.5425 20.0537 10.8452L20.7709 12.1626C22.0411 11.4712 22.5137 9.89936 21.7507 8.65339L20.4715 9.43672ZM17.9073 7.48609C18.4866 7.1707 19.2083 7.37384 19.5169 7.87787L20.7962 7.09455C20.0504 5.87672 18.4369 5.48992 17.1901 6.16864L17.9073 7.48609ZM4.26289 16.0945C3.97148 15.6187 4.12465 14.9887 4.68064 14.6861L3.96347 13.3686C2.69325 14.0601 2.2207 15.6319 2.98367 16.8779L4.26289 16.0945ZM3.93822 18.4367C4.68394 19.6545 6.29746 20.0413 7.54428 19.3626L6.82712 18.0452C6.24773 18.3606 5.52608 18.1574 5.21744 17.6534L3.93822 18.4367ZM17.8058 7.54133L17.9073 7.48609L17.1901 6.16864L17.0886 6.22388L17.8058 7.54133ZM6.82712 7.48607L6.92861 7.54132L7.64577 6.22387L7.54429 6.16862L6.82712 7.48607ZM17.9073 18.0452L17.8058 17.9899L17.0886 19.3074L17.1901 19.3626L17.9073 18.0452ZM6.92861 17.9899L6.82712 18.0452L7.54428 19.3626L7.64577 19.3074L6.92861 17.9899ZM3.96347 12.1626C4.44122 12.4227 4.44123 13.1086 3.96347 13.3686L4.68064 14.6861C6.20217 13.8578 6.20217 11.6734 4.68064 10.8452L3.96347 12.1626ZM7.64577 19.3074C8.14517 19.0355 8.75354 19.397 8.75354 19.9656H10.2535C10.2535 18.259 8.42754 17.174 6.92861 17.9899L7.64577 19.3074ZM15.9808 19.9656C15.9808 19.397 16.5892 19.0355 17.0886 19.3074L17.8058 17.9899C16.3068 17.174 14.4808 18.259 14.4808 19.9656H15.9808ZM20.7709 13.3686C20.2932 13.1086 20.2932 12.4227 20.7709 12.1626L20.0537 10.8452C18.5322 11.6734 18.5322 13.8578 20.0537 14.6861L20.7709 13.3686ZM6.92861 7.54132C8.42754 8.35727 10.2535 7.27225 10.2535 5.56563H8.75354C8.75354 6.13422 8.14517 6.49572 7.64577 6.22387L6.92861 7.54132ZM17.0886 6.22388C16.5892 6.49573 15.9808 6.13423 15.9808 5.56562H14.4808C14.4808 7.27226 16.3068 8.35728 17.8058 7.54133L17.0886 6.22388ZM14.6172 12.7656C14.6172 14.0083 13.6098 15.0156 12.3672 15.0156V16.5156C14.4383 16.5156 16.1172 14.8367 16.1172 12.7656H14.6172ZM12.3672 15.0156C11.1246 15.0156 10.1172 14.0083 10.1172 12.7656H8.6172C8.6172 14.8367 10.2961 16.5156 12.3672 16.5156V15.0156ZM10.1172 12.7656C10.1172 11.523 11.1246 10.5156 12.3672 10.5156V9.01562C10.2961 9.01562 8.6172 10.6946 8.6172 12.7656H10.1172ZM12.3672 10.5156C13.6098 10.5156 14.6172 11.523 14.6172 12.7656H16.1172C16.1172 10.6946 14.4383 9.01562 12.3672 9.01562V10.5156Z" fill="white"/>
</g>
</svg>
