<svg width="24" height="25" viewBox="0 0 24 25" fill="none" xmlns="http://www.w3.org/2000/svg">
<g id="Huge-icon/multimedia and audio/outline/speaker">
<path id="Vector" d="M18 10.4492C18.5978 10.795 19 11.4414 19 12.1817C19 12.9219 18.5978 13.5683 18 13.9141M18 7.28165C20.2822 7.74492 22 9.76267 22 12.1816C22 14.6006 20.2822 16.6183 18 17.0816M7.53323 7.78372L11.8 4.58509C13.1185 3.59668 15 4.53702 15 6.18436V18.1789C15 19.8263 13.1185 20.7666 11.8 19.7782L7.53323 16.5796C7.1871 16.3201 6.76617 16.1798 6.33358 16.1798H4C2.89543 16.1798 2 15.2848 2 14.1807V10.1825C2 9.07848 2.89543 8.18345 4 8.18345H6.33358C6.76617 8.18345 7.1871 8.0432 7.53323 7.78372Z" stroke="white" stroke-width="1.5" stroke-linecap="round"/>
</g>
</svg>
