<svg width="18" height="18" viewBox="0 0 18 18" fill="none" xmlns="http://www.w3.org/2000/svg">
<g id="fluent-mdl2:completed-solid">
<path id="Vector" d="M9 1.5C9.68848 1.5 10.3525 1.58789 10.9922 1.76367C11.6318 1.93945 12.2275 2.19336 12.7793 2.52539C13.3311 2.85742 13.8364 3.24805 14.2954 3.69727C14.7544 4.14648 15.1475 4.65186 15.4746 5.21338C15.8018 5.7749 16.0532 6.37305 16.229 7.00781C16.4048 7.64258 16.4951 8.30664 16.5 9C16.5 9.68848 16.4121 10.3525 16.2363 10.9922C16.0605 11.6318 15.8066 12.2275 15.4746 12.7793C15.1426 13.3311 14.752 13.8364 14.3027 14.2954C13.8535 14.7544 13.3481 15.1475 12.7866 15.4746C12.2251 15.8018 11.627 16.0532 10.9922 16.229C10.3574 16.4048 9.69336 16.4951 9 16.5C8.31152 16.5 7.64746 16.4121 7.00781 16.2363C6.36816 16.0605 5.77246 15.8066 5.2207 15.4746C4.66895 15.1426 4.16357 14.752 3.70459 14.3027C3.24561 13.8535 2.85254 13.3481 2.52539 12.7866C2.19824 12.2251 1.94678 11.627 1.771 10.9922C1.59521 10.3574 1.50488 9.69336 1.5 9C1.5 8.31152 1.58789 7.64746 1.76367 7.00781C1.93945 6.36816 2.19336 5.77246 2.52539 5.2207C2.85742 4.66895 3.24805 4.16357 3.69727 3.70459C4.14648 3.24561 4.65186 2.85254 5.21338 2.52539C5.7749 2.19824 6.37305 1.94678 7.00781 1.771C7.64258 1.59521 8.30664 1.50488 9 1.5ZM13.4165 6.51709L12.4204 5.521L7.59375 10.3477L5.57959 8.3335L4.5835 9.32959L7.59375 12.3398L13.4165 6.51709Z" fill="#009A4E"/>
</g>
</svg>
