<svg width="22" height="21" viewBox="0 0 22 21" fill="none" xmlns="http://www.w3.org/2000/svg">
<g id="chart-arrow-up">
<path id="combo shape" fill-rule="evenodd" clip-rule="evenodd" d="M18.0001 0.25C17.5859 0.25 17.2501 0.585786 17.2501 1C17.2501 1.41421 17.5859 1.75 18.0001 1.75H19.1126C15.3682 4.73616 12.5189 6.62721 9.80974 7.88373C7.0123 9.18121 4.32872 9.81857 0.90502 10.256C0.494147 10.3085 0.203629 10.6842 0.25613 11.0951C0.308632 11.5059 0.684271 11.7965 1.09514 11.744C4.61357 11.2944 7.45922 10.6274 10.4409 9.24449C13.3562 7.89233 16.3671 5.87162 20.2501 2.76111V4C20.2501 4.41421 20.5859 4.75 21.0001 4.75C21.4143 4.75 21.7501 4.41421 21.7501 4V2C21.7501 1.0335 20.9666 0.25 20.0001 0.25H18.0001ZM21.0001 9C21.0001 7.89543 20.1047 7 19.0001 7C17.8956 7 17.0001 7.89543 17.0001 9V19C17.0001 20.1046 17.8956 21 19.0001 21C20.1047 21 21.0001 20.1046 21.0001 19V9ZM5.00012 17C5.00012 15.8954 4.10469 15 3.00012 15C1.89555 15 1.00012 15.8954 1.00012 17L1.00012 19C1.00012 20.1046 1.89555 21 3.00012 21C4.10469 21 5.00012 20.1046 5.00012 19V17ZM11.0001 11C12.1047 11 13.0001 11.8954 13.0001 13V19C13.0001 20.1046 12.1047 21 11.0001 21C9.89555 21 9.00012 20.1046 9.00012 19V13C9.00012 11.8954 9.89555 11 11.0001 11Z" fill="white"/>
</g>
</svg>
