<svg width="25" height="25" viewBox="0 0 25 25" fill="none" xmlns="http://www.w3.org/2000/svg">
<g id="Huge-icon/user/outline/users 01">
<ellipse id="Ellipse 293" cx="10.3672" cy="18.2656" rx="7" ry="3.5" stroke="white" stroke-width="1.5" stroke-linejoin="round"/>
<circle id="Ellipse 294" cx="10.3672" cy="7.76562" r="4" stroke="white" stroke-width="1.5" stroke-linejoin="round"/>
<path id="Subtract" fill-rule="evenodd" clip-rule="evenodd" d="M15.4096 11.0154C15.0875 11.5143 14.6935 11.9624 14.2422 12.3449C14.5966 12.456 14.9738 12.5159 15.3649 12.5159C17.4359 12.5159 19.1149 10.8369 19.1149 8.76586C19.1149 6.81009 17.6176 5.20401 15.7069 5.03125C15.9731 5.55022 16.1659 6.11304 16.2715 6.70602C17.0626 7.05474 17.6149 7.84581 17.6149 8.76586C17.6149 9.99357 16.6316 10.9916 15.4096 11.0154Z" fill="white"/>
<path id="Subtract_2" fill-rule="evenodd" clip-rule="evenodd" d="M19.3673 18.3212C19.3573 18.9354 19.1824 19.5254 18.8686 20.0757C19.237 19.9744 19.5821 19.8569 19.8989 19.7249C20.496 19.4761 21.0282 19.1608 21.4226 18.7722C21.8197 18.3811 22.1178 17.8713 22.1178 17.2648C22.1178 16.6584 21.8197 16.1486 21.4226 15.7574C21.0282 15.3689 20.496 15.0536 19.8989 14.8048C18.8762 14.3787 17.5584 14.1043 16.1172 14.0332C17.1194 14.5423 17.9379 15.1818 18.5028 15.9091C18.8005 15.9923 19.0749 16.0864 19.322 16.1894C19.8106 16.393 20.1571 16.6163 20.37 16.826C20.5802 17.0331 20.6178 17.1809 20.6178 17.2648C20.6178 17.3488 20.5802 17.4966 20.37 17.7037C20.1637 17.9068 19.8321 18.1228 19.3673 18.3212Z" fill="white"/>
</g>
</svg>
