<svg width="19" height="19" viewBox="0 0 19 19" fill="none" xmlns="http://www.w3.org/2000/svg">
<g id="user">
<path id="combo shape" fill-rule="evenodd" clip-rule="evenodd" d="M7.36719 8.26562C9.57633 8.26562 11.3672 6.47476 11.3672 4.26562C11.3672 2.05649 9.57633 0.265625 7.36719 0.265625C5.15805 0.265625 3.36719 2.05649 3.36719 4.26562C3.36719 6.47476 5.15805 8.26562 7.36719 8.26562ZM7.36719 18.2656C11.2332 18.2656 14.3672 16.4748 14.3672 14.2656C14.3672 12.0565 11.2332 10.2656 7.36719 10.2656C3.50119 10.2656 0.367188 12.0565 0.367188 14.2656C0.367188 16.4748 3.50119 18.2656 7.36719 18.2656ZM11.3286 8.08109C12.2813 7.09215 12.8672 5.74734 12.8672 4.26571C12.8672 3.56111 12.7347 2.88746 12.4933 2.26831C14.0916 2.33442 15.3671 3.65111 15.3671 5.26571C15.3671 6.92256 14.024 8.26571 12.3671 8.26571C12.0021 8.26571 11.6522 8.2005 11.3286 8.08109ZM15.8671 14.2656C15.8671 14.8044 15.7474 15.3251 15.5241 15.8172C17.2306 15.2882 18.3671 14.3432 18.3671 13.2656C18.3671 11.7594 16.1471 10.5124 13.2539 10.2981C14.8646 11.299 15.8671 12.7065 15.8671 14.2656Z" fill="white"/>
</g>
</svg>
