<svg width="20" height="16" viewBox="0 0 20 16" fill="none" xmlns="http://www.w3.org/2000/svg">
<g id="camera video ">
<path id="combo shape" fill-rule="evenodd" clip-rule="evenodd" d="M0 4C0 1.79086 1.79086 0 4 0H10C12.2091 0 14 1.79086 14 4V12C14 14.2091 12.2091 16 10 16H4C1.79086 16 0 14.2091 0 12V4ZM4.25 8C4.25 7.58579 4.58579 7.25 5 7.25H9C9.41421 7.25 9.75 7.58579 9.75 8C9.75 8.41421 9.41421 8.75 9 8.75H5C4.58579 8.75 4.25 8.41421 4.25 8ZM16.5409 12.3103L15.5 11.1999V4.79993L16.5409 3.68961C17.781 2.3669 20 3.24442 20 5.05749V10.9424C20 12.7554 17.781 13.633 16.5409 12.3103Z" fill="white"/>
</g>
</svg>
