<svg width="24" height="24" viewBox="0 0 24 24" fill="none" xmlns="http://www.w3.org/2000/svg">
<g id="Frame" clip-path="url(#clip0_17061_32602)">
<g id="Vector">
<path fill-rule="evenodd" clip-rule="evenodd" d="M9.18367 4.64516C9.71073 4.64516 10.1787 5.00055 10.3453 5.52745L12.1415 11.2057L17.5301 13.0985C18.0301 13.2741 18.3673 13.7672 18.3673 14.3226C18.3673 14.878 18.0301 15.3711 17.5301 15.5467L12.1415 17.4394L10.3453 23.1177C10.1787 23.6446 9.71073 24 9.18367 24C8.65662 24 8.18869 23.6446 8.02202 23.1177L6.22583 17.4394L0.837272 15.5467C0.337261 15.3711 0 14.878 0 14.3226C0 13.7672 0.337261 13.2741 0.837272 13.0985L6.22583 11.2057L8.02202 5.52745C8.18869 5.00055 8.65662 4.64516 9.18367 4.64516ZM9.18367 10.0158L8.35553 12.6338C8.23365 13.0191 7.94673 13.3215 7.5811 13.4499L5.09667 14.3226L7.5811 15.1952C7.94673 15.3237 8.23365 15.626 8.35553 16.0113L9.18367 18.6293L10.0118 16.0113C10.1337 15.626 10.4206 15.3237 10.7863 15.1952L13.2707 14.3226L10.7863 13.4499C10.4206 13.3215 10.1337 13.0191 10.0118 12.6338L9.18367 10.0158Z" fill="url(#paint0_linear_17061_32602)"/>
<path fill-rule="evenodd" clip-rule="evenodd" d="M18.9796 0C19.2958 0 19.5766 0.213236 19.6766 0.529372L20.6318 3.54924L23.4976 4.55586C23.7976 4.66124 24 4.95709 24 5.29032C24 5.62356 23.7976 5.91941 23.4976 6.02479L20.6318 7.03141L19.6766 10.0513C19.5766 10.3674 19.2958 10.5806 18.9796 10.5806C18.6634 10.5806 18.3826 10.3674 18.2826 10.0513L17.3273 7.03141L14.4615 6.02479C14.1615 5.91941 13.9592 5.62356 13.9592 5.29032C13.9592 4.95709 14.1615 4.66124 14.4615 4.55586L17.3273 3.54924L18.2826 0.529372C18.3826 0.213236 18.6634 0 18.9796 0Z" fill="url(#paint1_linear_17061_32602)"/>
</g>
</g>
<defs>
<linearGradient id="paint0_linear_17061_32602" x1="4.99218" y1="-3.10091e-07" x2="19.0078" y2="24" gradientUnits="userSpaceOnUse">
<stop offset="1" stop-color="#464454" stop-opacity="0.6"/>
</linearGradient>
<linearGradient id="paint1_linear_17061_32602" x1="4.99218" y1="-3.10091e-07" x2="19.0078" y2="24" gradientUnits="userSpaceOnUse">
<stop offset="1" stop-color="#464454" stop-opacity="0.6"/>
</linearGradient>
<clipPath id="clip0_17061_32602">
<rect width="24" height="24" fill="white"/>
</clipPath>
</defs>
</svg>
