<svg width="24" height="24" viewBox="0 0 24 24" fill="none" xmlns="http://www.w3.org/2000/svg">
<g id="Huge-icon/business/outline/chart-arrow-up 01">
<path id="Vector" d="M19 2H21C21.5523 2 22 2.44772 22 3V5M21 3C13.0585 9.39136 8.94212 11.1129 2 12M18 10V20C18 21.1046 18.8954 22 20 22C21.1046 22 22 21.1046 22 20V10C22 8.89543 21.1046 8 20 8C18.8954 8 18 8.89543 18 10ZM2 18L2 20C2 21.1046 2.89543 22 4 22C5.10457 22 6 21.1046 6 20L6 18C6 16.8954 5.10457 16 4 16C2.89543 16 2 16.8954 2 18ZM10 14V20C10 21.1046 10.8954 22 12 22C13.1046 22 14 21.1046 14 20V14C14 12.8954 13.1046 12 12 12C10.8954 12 10 12.8954 10 14Z" stroke="#464454" stroke-opacity="0.6" stroke-width="1.5" stroke-linecap="round" stroke-linejoin="round"/>
</g>
</svg>
