<svg width="27" height="27" viewBox="0 0 27 27" fill="none" xmlns="http://www.w3.org/2000/svg">
<g id="icon/AI Generate A filled">
<g id="Vector">
<path d="M6.75 25.875C6.12868 25.875 5.625 25.3713 5.625 24.75C5.625 24.1287 6.12868 23.625 6.75 23.625C7.37132 23.625 7.875 24.1287 7.875 24.75C7.875 25.3713 7.37132 25.875 6.75 25.875Z" fill="url(#paint0_linear_13049_1354)"/>
<path d="M20.25 3.375C19.6287 3.375 19.125 2.87132 19.125 2.25C19.125 1.62868 19.6287 1.125 20.25 1.125C20.8713 1.125 21.375 1.62868 21.375 2.25C21.375 2.87132 20.8713 3.375 20.25 3.375Z" fill="url(#paint1_linear_13049_1354)"/>
<path d="M24.75 7.875C24.1287 7.875 23.625 7.37132 23.625 6.75C23.625 6.12868 24.1287 5.625 24.75 5.625C25.3713 5.625 25.875 6.12868 25.875 6.75C25.875 7.37132 25.3713 7.875 24.75 7.875Z" fill="url(#paint2_linear_13049_1354)"/>
<path d="M12.0316 5.65488C12.405 4.11504 14.595 4.11504 14.9684 5.65488L15.9958 9.89187C16.1291 10.4416 16.5584 10.8709 17.1081 11.0042L21.3451 12.0316C22.885 12.405 22.885 14.595 21.3451 14.9684L17.1081 15.9958C16.5584 16.1291 16.1291 16.5584 15.9958 17.1081L14.9684 21.3451C14.595 22.885 12.405 22.885 12.0316 21.3451L11.0042 17.1081C10.8709 16.5584 10.4416 16.1291 9.89187 15.9958L5.65489 14.9684C4.11504 14.595 4.11504 12.405 5.65488 12.0316L9.89187 11.0042C10.4416 10.8709 10.8709 10.4416 11.0042 9.89187L12.0316 5.65488Z" fill="url(#paint3_linear_13049_1354)"/>
<path fill-rule="evenodd" clip-rule="evenodd" d="M25.104 16.8698C25.6279 17.0653 25.8941 17.6485 25.6986 18.1724C24.432 21.5659 21.8027 24.2917 18.4757 25.684C17.9599 25.8999 17.3667 25.6567 17.1508 25.1409C16.9349 24.625 17.1781 24.0319 17.694 23.816C20.5059 22.6392 22.7309 20.3326 23.8014 17.4643C23.997 16.9404 24.5802 16.6742 25.104 16.8698Z" fill="url(#paint4_linear_13049_1354)"/>
<path fill-rule="evenodd" clip-rule="evenodd" d="M10.1484 1.89522C10.3443 2.41895 10.0786 3.00237 9.55485 3.19831C6.67074 4.27731 4.35457 6.52826 3.18658 9.37197C2.97413 9.88923 2.38258 10.1363 1.86532 9.92387C1.34806 9.71142 1.10097 9.11987 1.31342 8.60262C2.69476 5.23946 5.43148 2.57887 8.84528 1.30169C9.36902 1.10575 9.95243 1.37148 10.1484 1.89522Z" fill="url(#paint5_linear_13049_1354)"/>
<path d="M2.25 21.375C1.62868 21.375 1.125 20.8713 1.125 20.25C1.125 19.6287 1.62868 19.125 2.25 19.125C2.87132 19.125 3.375 19.6287 3.375 20.25C3.375 20.8713 2.87132 21.375 2.25 21.375Z" fill="url(#paint6_linear_13049_1354)"/>
</g>
</g>
<defs>
<linearGradient id="paint0_linear_13049_1354" x1="13.5" y1="1.125" x2="13.5" y2="25.875" gradientUnits="userSpaceOnUse">
<stop stop-color="#5DC4FF"/>
<stop offset="1" stop-color="#E033FF"/>
</linearGradient>
<linearGradient id="paint1_linear_13049_1354" x1="13.5" y1="1.125" x2="13.5" y2="25.875" gradientUnits="userSpaceOnUse">
<stop stop-color="#5DC4FF"/>
<stop offset="1" stop-color="#E033FF"/>
</linearGradient>
<linearGradient id="paint2_linear_13049_1354" x1="13.5" y1="1.125" x2="13.5" y2="25.875" gradientUnits="userSpaceOnUse">
<stop stop-color="#5DC4FF"/>
<stop offset="1" stop-color="#E033FF"/>
</linearGradient>
<linearGradient id="paint3_linear_13049_1354" x1="13.5" y1="1.125" x2="13.5" y2="25.875" gradientUnits="userSpaceOnUse">
<stop stop-color="#5DC4FF"/>
<stop offset="1" stop-color="#E033FF"/>
</linearGradient>
<linearGradient id="paint4_linear_13049_1354" x1="13.5" y1="1.125" x2="13.5" y2="25.875" gradientUnits="userSpaceOnUse">
<stop stop-color="#5DC4FF"/>
<stop offset="1" stop-color="#E033FF"/>
</linearGradient>
<linearGradient id="paint5_linear_13049_1354" x1="13.5" y1="1.125" x2="13.5" y2="25.875" gradientUnits="userSpaceOnUse">
<stop stop-color="#5DC4FF"/>
<stop offset="1" stop-color="#E033FF"/>
</linearGradient>
<linearGradient id="paint6_linear_13049_1354" x1="13.5" y1="1.125" x2="13.5" y2="25.875" gradientUnits="userSpaceOnUse">
<stop stop-color="#5DC4FF"/>
<stop offset="1" stop-color="#E033FF"/>
</linearGradient>
</defs>
</svg>
