<svg width="25" height="24" viewBox="0 0 25 24" fill="none" xmlns="http://www.w3.org/2000/svg">
<g id="Frame">
<path id="Vector" d="M6.5 21V19H11.5V16H4.5C3.95 16 3.47917 15.8042 3.0875 15.4125C2.69583 15.0208 2.5 14.55 2.5 14V5C2.5 4.45 2.69583 3.97917 3.0875 3.5875C3.47917 3.19583 3.95 3 4.5 3H20.5C21.05 3 21.5208 3.19583 21.9125 3.5875C22.3042 3.97917 22.5 4.45 22.5 5V14C22.5 14.55 22.3042 15.0208 21.9125 15.4125C21.5208 15.8042 21.05 16 20.5 16H13.5V19H18.5V21H6.5Z" fill="#ECECEC"/>
</g>
</svg>
