<svg width="20" height="20" viewBox="0 0 20 20" fill="none" xmlns="http://www.w3.org/2000/svg">
<g id="Frame">
<path id="Vector" d="M9.71936 11.4271C9.51022 11.4271 9.33492 11.3635 9.19344 11.2362C9.05197 11.1088 8.98123 10.9511 8.98123 10.7628C8.98123 10.5746 9.05197 10.4168 9.19344 10.2895C9.33492 10.1622 9.51022 10.0985 9.71936 10.0985C9.9285 10.0985 10.1038 10.1622 10.2453 10.2895C10.3868 10.4168 10.4575 10.5746 10.4575 10.7628C10.4575 10.9511 10.3868 11.1088 10.2453 11.2362C10.1038 11.3635 9.9285 11.4271 9.71936 11.4271ZM6.76683 11.4271C6.55769 11.4271 6.38239 11.3635 6.24091 11.2362C6.09944 11.1088 6.0287 10.9511 6.0287 10.7628C6.0287 10.5746 6.09944 10.4168 6.24091 10.2895C6.38239 10.1622 6.55769 10.0985 6.76683 10.0985C6.97597 10.0985 7.15128 10.1622 7.29275 10.2895C7.43423 10.4168 7.50496 10.5746 7.50496 10.7628C7.50496 10.9511 7.43423 11.1088 7.29275 11.2362C7.15128 11.3635 6.97597 11.4271 6.76683 11.4271ZM12.6719 11.4271C12.4628 11.4271 12.2874 11.3635 12.146 11.2362C12.0045 11.1088 11.9338 10.9511 11.9338 10.7628C11.9338 10.5746 12.0045 10.4168 12.146 10.2895C12.2874 10.1622 12.4628 10.0985 12.6719 10.0985C12.881 10.0985 13.0563 10.1622 13.1978 10.2895C13.3393 10.4168 13.41 10.5746 13.41 10.7628C13.41 10.9511 13.3393 11.1088 13.1978 11.2362C13.0563 11.3635 12.881 11.4271 12.6719 11.4271ZM9.71936 14.0844C9.51022 14.0844 9.33492 14.0208 9.19344 13.8934C9.05197 13.7661 8.98123 13.6083 8.98123 13.4201C8.98123 13.2319 9.05197 13.0741 9.19344 12.9468C9.33492 12.8194 9.51022 12.7558 9.71936 12.7558C9.9285 12.7558 10.1038 12.8194 10.2453 12.9468C10.3868 13.0741 10.4575 13.2319 10.4575 13.4201C10.4575 13.6083 10.3868 13.7661 10.2453 13.8934C10.1038 14.0208 9.9285 14.0844 9.71936 14.0844ZM6.76683 14.0844C6.55769 14.0844 6.38239 14.0208 6.24091 13.8934C6.09944 13.7661 6.0287 13.6083 6.0287 13.4201C6.0287 13.2319 6.09944 13.0741 6.24091 12.9468C6.38239 12.8194 6.55769 12.7558 6.76683 12.7558C6.97597 12.7558 7.15128 12.8194 7.29275 12.9468C7.43423 13.0741 7.50496 13.2319 7.50496 13.4201C7.50496 13.6083 7.43423 13.7661 7.29275 13.8934C7.15128 14.0208 6.97597 14.0844 6.76683 14.0844ZM12.6719 14.0844C12.4628 14.0844 12.2874 14.0208 12.146 13.8934C12.0045 13.7661 11.9338 13.6083 11.9338 13.4201C11.9338 13.2319 12.0045 13.0741 12.146 12.9468C12.2874 12.8194 12.4628 12.7558 12.6719 12.7558C12.881 12.7558 13.0563 12.8194 13.1978 12.9468C13.3393 13.0741 13.41 13.2319 13.41 13.4201C13.41 13.6083 13.3393 13.7661 13.1978 13.8934C13.0563 14.0208 12.881 14.0844 12.6719 14.0844ZM4.55244 16.7417C4.14646 16.7417 3.79893 16.6116 3.50982 16.3514C3.22072 16.0912 3.07617 15.7784 3.07617 15.4131V6.1126C3.07617 5.74722 3.22072 5.43444 3.50982 5.17425C3.79893 4.91406 4.14646 4.78396 4.55244 4.78396H5.29057V3.45532H6.76683V4.78396H12.6719V3.45532H14.1482V4.78396H14.8863C15.2923 4.78396 15.6398 4.91406 15.9289 5.17425C16.218 5.43444 16.3625 5.74722 16.3625 6.1126V15.4131C16.3625 15.7784 16.218 16.0912 15.9289 16.3514C15.6398 16.6116 15.2923 16.7417 14.8863 16.7417H4.55244ZM4.55244 15.4131H14.8863V8.76987H4.55244V15.4131Z" fill="#464454"/>
</g>
</svg>
