<svg width="37" height="38" viewBox="0 0 37 38" fill="none" xmlns="http://www.w3.org/2000/svg">
<g id="Frame" clip-path="url(#clip0_13281_1505)">
<path id="Vector" d="M18.2859 22.2067C17.7241 22.2067 17.2532 22.0394 16.8732 21.7048C16.4932 21.3702 16.3032 20.9556 16.3032 20.461C16.3032 19.9664 16.4932 19.5518 16.8732 19.2172C17.2532 18.8826 17.7241 18.7153 18.2859 18.7153C18.8477 18.7153 19.3186 18.8826 19.6986 19.2172C20.0786 19.5518 20.2686 19.9664 20.2686 20.461C20.2686 20.9556 20.0786 21.3702 19.6986 21.7048C19.3186 22.0394 18.8477 22.2067 18.2859 22.2067ZM10.355 22.2067C9.79323 22.2067 9.32234 22.0394 8.94232 21.7048C8.5623 21.3702 8.37229 20.9556 8.37229 20.461C8.37229 19.9664 8.5623 19.5518 8.94232 19.2172C9.32234 18.8826 9.79323 18.7153 10.355 18.7153C10.9168 18.7153 11.3877 18.8826 11.7677 19.2172C12.1477 19.5518 12.3377 19.9664 12.3377 20.461C12.3377 20.9556 12.1477 21.3702 11.7677 21.7048C11.3877 22.0394 10.9168 22.2067 10.355 22.2067ZM26.2168 22.2067C25.655 22.2067 25.1841 22.0394 24.8041 21.7048C24.4241 21.3702 24.234 20.9556 24.234 20.461C24.234 19.9664 24.4241 19.5518 24.8041 19.2172C25.1841 18.8826 25.655 18.7153 26.2168 18.7153C26.7785 18.7153 27.2494 18.8826 27.6295 19.2172C28.0095 19.5518 28.1995 19.9664 28.1995 20.461C28.1995 20.9556 28.0095 21.3702 27.6295 21.7048C27.2494 22.0394 26.7785 22.2067 26.2168 22.2067ZM18.2859 29.1893C17.7241 29.1893 17.2532 29.022 16.8732 28.6874C16.4932 28.3528 16.3032 27.9382 16.3032 27.4436C16.3032 26.949 16.4932 26.5344 16.8732 26.1998C17.2532 25.8653 17.7241 25.698 18.2859 25.698C18.8477 25.698 19.3186 25.8653 19.6986 26.1998C20.0786 26.5344 20.2686 26.949 20.2686 27.4436C20.2686 27.9382 20.0786 28.3528 19.6986 28.6874C19.3186 29.022 18.8477 29.1893 18.2859 29.1893ZM10.355 29.1893C9.79323 29.1893 9.32234 29.022 8.94232 28.6874C8.5623 28.3528 8.37229 27.9382 8.37229 27.4436C8.37229 26.949 8.5623 26.5344 8.94232 26.1998C9.32234 25.8653 9.79323 25.698 10.355 25.698C10.9168 25.698 11.3877 25.8653 11.7677 26.1998C12.1477 26.5344 12.3377 26.949 12.3377 27.4436C12.3377 27.9382 12.1477 28.3528 11.7677 28.6874C11.3877 29.022 10.9168 29.1893 10.355 29.1893ZM26.2168 29.1893C25.655 29.1893 25.1841 29.022 24.8041 28.6874C24.4241 28.3528 24.234 27.9382 24.234 27.4436C24.234 26.949 24.4241 26.5344 24.8041 26.1998C25.1841 25.8653 25.655 25.698 26.2168 25.698C26.7785 25.698 27.2494 25.8653 27.6295 26.1998C28.0095 26.5344 28.1995 26.949 28.1995 27.4436C28.1995 27.9382 28.0095 28.3528 27.6295 28.6874C27.2494 29.022 26.7785 29.1893 26.2168 29.1893ZM3.41549 36.1719C2.6224 36.1719 1.92845 35.91 1.33363 35.3863C0.738814 34.8627 0.441406 34.2517 0.441406 33.5534V6.49575C0.441406 5.79749 0.738814 5.18651 1.33363 4.66282C1.92845 4.13912 2.6224 3.87727 3.41549 3.87727H6.63741V1.25879H9.85933V3.87727H26.7124V1.25879H29.9344V3.87727H33.1563C33.9494 3.87727 34.6433 4.13912 35.2381 4.66282C35.833 5.18651 36.1304 5.79749 36.1304 6.49575V33.5534C36.1304 34.2517 35.833 34.8627 35.2381 35.3863C34.6433 35.91 33.9494 36.1719 33.1563 36.1719H3.41549ZM3.41549 33.5534H33.1563V14.7876H3.41549V33.5534Z" fill="white"/>
</g>
<defs>
<clipPath id="clip0_13281_1505">
<rect width="35.689" height="41.8957" fill="white" transform="translate(0.439941 -2.62048)"/>
</clipPath>
</defs>
</svg>
