<svg width="21" height="17" viewBox="0 0 21 17" fill="none" xmlns="http://www.w3.org/2000/svg">
<g id="camera video ">
<path id="combo shape" fill-rule="evenodd" clip-rule="evenodd" d="M0.786133 4.28564C0.786133 2.07651 2.57699 0.285645 4.78613 0.285645H10.7861C12.9953 0.285645 14.7861 2.07651 14.7861 4.28564V12.2856C14.7861 14.4948 12.9953 16.2856 10.7861 16.2856H4.78613C2.57699 16.2856 0.786133 14.4948 0.786133 12.2856V4.28564ZM5.03613 8.28564C5.03613 7.87143 5.37192 7.53564 5.78613 7.53564H9.78613C10.2003 7.53564 10.5361 7.87143 10.5361 8.28564C10.5361 8.69986 10.2003 9.03564 9.78613 9.03564H5.78613C5.37192 9.03564 5.03613 8.69986 5.03613 8.28564ZM17.3271 12.5959L16.2861 11.4856V5.08558L17.3271 3.97525C18.5671 2.65255 20.7861 3.53006 20.7861 5.34314V11.228C20.7861 13.0411 18.5671 13.9186 17.3271 12.5959Z" fill="white"/>
</g>
</svg>
