<svg width="22" height="22" viewBox="0 0 22 22" fill="none" xmlns="http://www.w3.org/2000/svg">
<g id="camera video-silent">
<path id="combo shape" fill-rule="evenodd" clip-rule="evenodd" d="M0.219669 0.21967C-0.0732231 0.512563 -0.0732231 0.987437 0.219669 1.28033L2.43028 3.49095C1.4132 4.21618 0.75 5.40564 0.75 6.75V14.75C0.75 16.9591 2.54086 18.75 4.75 18.75H10.75C12.6326 18.75 14.2115 17.4494 14.6371 15.6977L20.2197 21.2803C20.5126 21.5732 20.9874 21.5732 21.2803 21.2803C21.5732 20.9874 21.5732 20.5126 21.2803 20.2197L1.28033 0.21967C0.987436 -0.0732233 0.512564 -0.0732233 0.219669 0.21967ZM14.75 11.6893L5.81066 2.75H10.75C12.9591 2.75 14.75 4.54086 14.75 6.75V11.6893ZM16.25 13.1893L18.7569 15.6963C19.7753 15.6847 20.75 14.894 20.75 13.6924V7.80749C20.75 5.99442 18.531 5.1169 17.2909 6.43961L16.25 7.54993V13.1893Z" fill="#ED1C24"/>
</g>
</svg>
