<svg width="25" height="24" viewBox="0 0 25 24" fill="none" xmlns="http://www.w3.org/2000/svg">
<g id="Frame">
<path id="Vector" d="M5.5 20C4.95 20 4.47917 19.8042 4.0875 19.4125C3.69583 19.0208 3.5 18.55 3.5 18V6C3.5 5.45 3.69583 4.97917 4.0875 4.5875C4.47917 4.19583 4.95 4 5.5 4H19.5C20.05 4 20.5208 4.19583 20.9125 4.5875C21.3042 4.97917 21.5 5.45 21.5 6V18C21.5 18.55 21.3042 19.0208 20.9125 19.4125C20.5208 19.8042 20.05 20 19.5 20H5.5ZM7.5 15H10.5C10.7833 15 11.0208 14.9042 11.2125 14.7125C11.4042 14.5208 11.5 14.2833 11.5 14V13H10V13.5H8V10.5H10V11H11.5V10C11.5 9.71667 11.4042 9.47917 11.2125 9.2875C11.0208 9.09583 10.7833 9 10.5 9H7.5C7.21667 9 6.97917 9.09583 6.7875 9.2875C6.59583 9.47917 6.5 9.71667 6.5 10V14C6.5 14.2833 6.59583 14.5208 6.7875 14.7125C6.97917 14.9042 7.21667 15 7.5 15ZM14.5 15H17.5C17.7833 15 18.0208 14.9042 18.2125 14.7125C18.4042 14.5208 18.5 14.2833 18.5 14V13H17V13.5H15V10.5H17V11H18.5V10C18.5 9.71667 18.4042 9.47917 18.2125 9.2875C18.0208 9.09583 17.7833 9 17.5 9H14.5C14.2167 9 13.9792 9.09583 13.7875 9.2875C13.5958 9.47917 13.5 9.71667 13.5 10V14C13.5 14.2833 13.5958 14.5208 13.7875 14.7125C13.9792 14.9042 14.2167 15 14.5 15Z" fill="white"/>
</g>
</svg>
