<svg width="20" height="18" viewBox="0 0 20 18" fill="none" xmlns="http://www.w3.org/2000/svg">
<g id="chat">
<path id="Subtract" fill-rule="evenodd" clip-rule="evenodd" d="M9 0H11C15.9706 0 20 4.02944 20 9C20 13.9706 15.9706 18 11 18H4C1.79086 18 0 16.2091 0 14V9C0 4.02944 4.02944 0 9 0ZM10 10C10.5523 10 11 9.55229 11 9C11 8.44771 10.5523 8 10 8C9.44771 8 9 8.44771 9 9C9 9.55229 9.44771 10 10 10ZM15 9C15 9.55229 14.5523 10 14 10C13.4477 10 13 9.55229 13 9C13 8.44771 13.4477 8 14 8C14.5523 8 15 8.44771 15 9ZM6 10C6.55228 10 7 9.55229 7 9C7 8.44771 6.55228 8 6 8C5.44772 8 5 8.44771 5 9C5 9.55229 5.44772 10 6 10Z" fill="white"/>
</g>
</svg>
