<svg width="18" height="20" viewBox="0 0 18 20" fill="none" xmlns="http://www.w3.org/2000/svg">
<g id="files">
<path id="Combo shape" fill-rule="evenodd" clip-rule="evenodd" d="M14 12L14 4C14 1.79086 12.2091 0 10 0H7.65685C7.34909 0 7.04498 0.0354679 6.75 0.10414L6.75 2C6.75 4.62335 4.62335 6.75 2 6.75H0.10414C0.0354679 7.04498 0 7.34909 0 7.65685V12C0 14.2091 1.79086 16 4 16H10C12.2091 16 14 14.2091 14 12ZM4.82843 1.17157C4.96101 1.03899 5.10195 0.91667 5.25 0.805133L5.25 2C5.25 3.79493 3.79492 5.25 2 5.25H0.805132C0.916669 5.10195 1.03899 4.96101 1.17157 4.82843L4.82843 1.17157ZM8.00001 20C6.32132 20 4.88416 18.9659 4.29077 17.5H10C13.0376 17.5 15.5 15.0376 15.5 12V4.29077C16.9659 4.88416 18 6.32132 18 8.00001V16C18 18.2092 16.2092 20 14 20H8.00001Z" fill="white"/>
</g>
</svg>
