<svg width="18" height="19" viewBox="0 0 18 19" fill="none" xmlns="http://www.w3.org/2000/svg">
<g id="Frame">
<path id="Vector" d="M7.22692 13.7887C6.83545 13.7887 6.50032 13.6493 6.22154 13.3705C5.94277 13.0918 5.80338 12.7566 5.80338 12.3652V3.82393C5.80338 3.43246 5.94277 3.09733 6.22154 2.81856C6.50032 2.53978 6.83545 2.40039 7.22692 2.40039H13.6329C14.0243 2.40039 14.3595 2.53978 14.6382 2.81856C14.917 3.09733 15.0564 3.43246 15.0564 3.82393V12.3652C15.0564 12.7566 14.917 13.0918 14.6382 13.3705C14.3595 13.6493 14.0243 13.7887 13.6329 13.7887H7.22692ZM4.37984 16.6358C3.98837 16.6358 3.65324 16.4964 3.37446 16.2176C3.09569 15.9389 2.9563 15.6037 2.9563 15.2123V5.24747H4.37984V15.2123H12.2093V16.6358H4.37984Z" fill="#D6D6D6" fill-opacity="0.8"/>
</g>
</svg>
