<svg width="21" height="20" viewBox="0 0 21 20" fill="none" xmlns="http://www.w3.org/2000/svg">
<g id="multiply-rectangle">
<path id="Combo shape" fill-rule="evenodd" clip-rule="evenodd" d="M0.5 4C0.5 1.79086 2.29086 0 4.5 0H16.5C18.7091 0 20.5 1.79086 20.5 4V16C20.5 18.2091 18.7091 20 16.5 20H4.5C2.29086 20 0.5 18.2091 0.5 16V4ZM7.1413 6.6413C7.43419 6.34841 7.90907 6.34841 8.20196 6.6413L10.5 8.93934L12.798 6.6413C13.0909 6.34841 13.5658 6.34841 13.8587 6.6413C14.1516 6.93419 14.1516 7.40907 13.8587 7.70196L11.5607 10L13.8588 12.2982C14.1517 12.591 14.1517 13.0659 13.8588 13.3588C13.5659 13.6517 13.091 13.6517 12.7982 13.3588L10.5 11.0607L8.20184 13.3588C7.90895 13.6517 7.43408 13.6517 7.14118 13.3588C6.84829 13.0659 6.84829 12.591 7.14118 12.2982L9.43934 10L7.1413 7.70196C6.84841 7.40907 6.84841 6.93419 7.1413 6.6413Z" fill="white"/>
</g>
</svg>
