<svg width="25" height="24" viewBox="0 0 25 24" fill="none" xmlns="http://www.w3.org/2000/svg">
<g id="Frame">
<path id="Vector" d="M3.17041 9.65V7.525L7.69541 3H9.82041L3.17041 9.65ZM3.17041 4.75V3H4.92041L3.17041 4.75ZM16.3454 6.425C16.1787 6.24167 15.9996 6.0625 15.8079 5.8875C15.6162 5.7125 15.4204 5.55833 15.2204 5.425L17.6454 3H19.7704L16.3454 6.425ZM5.67041 14.975L7.59541 13.05C7.71208 13.2333 7.83291 13.4 7.95791 13.55C8.08291 13.7 8.22041 13.8417 8.37041 13.975C7.90374 14.0917 7.43291 14.2375 6.95791 14.4125C6.48291 14.5875 6.05374 14.775 5.67041 14.975ZM17.6704 10.05V10C17.6704 9.68333 17.6454 9.375 17.5954 9.075C17.5454 8.775 17.4704 8.48333 17.3704 8.2L21.1704 4.4V6.55L17.6704 10.05ZM11.0704 4.6L12.6954 3H14.8204L13.2204 4.6C13.0371 4.56667 12.8621 4.54167 12.6954 4.525C12.5287 4.50833 12.3537 4.5 12.1704 4.5C11.9871 4.5 11.8037 4.50833 11.6204 4.525C11.4371 4.54167 11.2537 4.56667 11.0704 4.6ZM3.17041 14.625V12.5L6.77041 8.9C6.73708 9.08333 6.71208 9.26667 6.69541 9.45C6.67874 9.63333 6.67041 9.81667 6.67041 10C6.67041 10.1833 6.67874 10.3583 6.69541 10.525C6.71208 10.6917 6.73708 10.8583 6.77041 11.025L3.17041 14.625ZM20.8954 16.7C20.7621 16.5 20.6079 16.3083 20.4329 16.125C20.2579 15.9417 20.0704 15.775 19.8704 15.625L21.1704 14.325V16.45L20.8954 16.7ZM17.9954 14.65C17.8787 14.6 17.7621 14.5542 17.6454 14.5125C17.5287 14.4708 17.4121 14.4333 17.2954 14.4C17.1454 14.35 16.9996 14.3 16.8579 14.25C16.7162 14.2 16.5704 14.1583 16.4204 14.125L21.1704 9.35V11.5L17.9954 14.65ZM12.1704 14C11.0704 14 10.1287 13.6083 9.34541 12.825C8.56208 12.0417 8.17041 11.1 8.17041 10C8.17041 8.9 8.56208 7.95833 9.34541 7.175C10.1287 6.39167 11.0704 6 12.1704 6C13.2704 6 14.2121 6.39167 14.9954 7.175C15.7787 7.95833 16.1704 8.9 16.1704 10C16.1704 11.1 15.7787 12.0417 14.9954 12.825C14.2121 13.6083 13.2704 14 12.1704 14ZM12.1704 12C12.7204 12 13.1912 11.8042 13.5829 11.4125C13.9746 11.0208 14.1704 10.55 14.1704 10C14.1704 9.45 13.9746 8.97917 13.5829 8.5875C13.1912 8.19583 12.7204 8 12.1704 8C11.6204 8 11.1496 8.19583 10.7579 8.5875C10.3662 8.97917 10.1704 9.45 10.1704 10C10.1704 10.55 10.3662 11.0208 10.7579 11.4125C11.1496 11.8042 11.6204 12 12.1704 12ZM4.17041 21V19.225C4.17041 18.6583 4.31208 18.1333 4.59541 17.65C4.87874 17.1667 5.27041 16.8 5.77041 16.55C6.62041 16.1167 7.58291 15.75 8.65791 15.45C9.73291 15.15 10.9037 15 12.1704 15C13.4371 15 14.6079 15.15 15.6829 15.45C16.7579 15.75 17.7204 16.1167 18.5704 16.55C19.0704 16.8 19.4621 17.1667 19.7454 17.65C20.0287 18.1333 20.1704 18.6583 20.1704 19.225V21H4.17041ZM6.19541 19H18.1454C18.1121 18.85 18.0537 18.7208 17.9704 18.6125C17.8871 18.5042 17.7787 18.4167 17.6454 18.35C17.0454 18.05 16.2829 17.75 15.3579 17.45C14.4329 17.15 13.3704 17 12.1704 17C10.9704 17 9.90791 17.15 8.98291 17.45C8.05791 17.75 7.29541 18.05 6.69541 18.35C6.56208 18.4167 6.45374 18.5083 6.37041 18.625C6.28708 18.7417 6.22874 18.8667 6.19541 19Z" fill="#D9D9D9"/>
</g>
</svg>
