<svg width="64" height="64" viewBox="0 0 64 64" fill="none" xmlns="http://www.w3.org/2000/svg">
<g id="Group 1000002881">
<circle id="Ellipse 1272" cx="32" cy="32" r="32" fill="#272A32"/>
<path id="Vector" d="M35.5 31C35.9167 31 36.2708 30.8542 36.5625 30.5625C36.8542 30.2708 37 29.9167 37 29.5C37 29.0833 36.8542 28.7292 36.5625 28.4375C36.2708 28.1458 35.9167 28 35.5 28C35.0833 28 34.7292 28.1458 34.4375 28.4375C34.1458 28.7292 34 29.0833 34 29.5C34 29.9167 34.1458 30.2708 34.4375 30.5625C34.7292 30.8542 35.0833 31 35.5 31ZM28.5 31C28.9167 31 29.2708 30.8542 29.5625 30.5625C29.8542 30.2708 30 29.9167 30 29.5C30 29.0833 29.8542 28.7292 29.5625 28.4375C29.2708 28.1458 28.9167 28 28.5 28C28.0833 28 27.7292 28.1458 27.4375 28.4375C27.1458 28.7292 27 29.0833 27 29.5C27 29.9167 27.1458 30.2708 27.4375 30.5625C27.7292 30.8542 28.0833 31 28.5 31ZM32 37.5C33.1333 37.5 34.1625 37.1792 35.0875 36.5375C36.0125 35.8958 36.6833 35.05 37.1 34H35.45C35.0833 34.6167 34.5958 35.1042 33.9875 35.4625C33.3792 35.8208 32.7167 36 32 36C31.2833 36 30.6208 35.8208 30.0125 35.4625C29.4042 35.1042 28.9167 34.6167 28.55 34H26.9C27.3167 35.05 27.9875 35.8958 28.9125 36.5375C29.8375 37.1792 30.8667 37.5 32 37.5ZM32 42C30.6167 42 29.3167 41.7375 28.1 41.2125C26.8833 40.6875 25.825 39.975 24.925 39.075C24.025 38.175 23.3125 37.1167 22.7875 35.9C22.2625 34.6833 22 33.3833 22 32C22 30.6167 22.2625 29.3167 22.7875 28.1C23.3125 26.8833 24.025 25.825 24.925 24.925C25.825 24.025 26.8833 23.3125 28.1 22.7875C29.3167 22.2625 30.6167 22 32 22C33.3833 22 34.6833 22.2625 35.9 22.7875C37.1167 23.3125 38.175 24.025 39.075 24.925C39.975 25.825 40.6875 26.8833 41.2125 28.1C41.7375 29.3167 42 30.6167 42 32C42 33.3833 41.7375 34.6833 41.2125 35.9C40.6875 37.1167 39.975 38.175 39.075 39.075C38.175 39.975 37.1167 40.6875 35.9 41.2125C34.6833 41.7375 33.3833 42 32 42Z" fill="white"/>
</g>
</svg>
