<svg width="24" height="24" viewBox="0 0 24 24" fill="none" xmlns="http://www.w3.org/2000/svg">
<g id="fluent-mdl2:completed-solid">
<path id="Vector" d="M12 2C12.918 2 13.8034 2.11719 14.6562 2.35156C15.5091 2.58594 16.3034 2.92448 17.0391 3.36719C17.7747 3.8099 18.4486 4.33073 19.0605 4.92969C19.6725 5.52865 20.1966 6.20247 20.6328 6.95117C21.069 7.69987 21.4043 8.4974 21.6387 9.34375C21.873 10.1901 21.9935 11.0755 22 12C22 12.918 21.8828 13.8034 21.6484 14.6562C21.4141 15.5091 21.0755 16.3034 20.6328 17.0391C20.1901 17.7747 19.6693 18.4486 19.0703 19.0605C18.4714 19.6725 17.7975 20.1966 17.0488 20.6328C16.3001 21.069 15.5026 21.4043 14.6562 21.6387C13.8099 21.873 12.9245 21.9935 12 22C11.082 22 10.1966 21.8828 9.34375 21.6484C8.49089 21.4141 7.69661 21.0755 6.96094 20.6328C6.22526 20.1901 5.55143 19.6693 4.93945 19.0703C4.32747 18.4714 3.80339 17.7975 3.36719 17.0488C2.93099 16.3001 2.5957 15.5026 2.36133 14.6562C2.12695 13.8099 2.00651 12.9245 2 12C2 11.082 2.11719 10.1966 2.35156 9.34375C2.58594 8.49089 2.92448 7.69661 3.36719 6.96094C3.8099 6.22526 4.33073 5.55143 4.92969 4.93945C5.52865 4.32747 6.20247 3.80339 6.95117 3.36719C7.69987 2.93099 8.4974 2.5957 9.34375 2.36133C10.1901 2.12695 11.0755 2.00651 12 2ZM17.8887 8.68945L16.5605 7.36133L10.125 13.7969L7.43945 11.1113L6.11133 12.4395L10.125 16.4531L17.8887 8.68945Z" fill="#009A4E"/>
</g>
</svg>
