<svg width="25" height="25" viewBox="0 0 25 25" fill="none" xmlns="http://www.w3.org/2000/svg">
<g id="Huge-icon/grid/outline/grid 02">
<g id="Vector">
<path d="M2.36719 4.76562C2.36719 3.66106 3.26262 2.76562 4.36719 2.76562H8.36719C9.47176 2.76562 10.3672 3.66106 10.3672 4.76562V8.76562C10.3672 9.87019 9.47176 10.7656 8.36719 10.7656H4.36719C3.26262 10.7656 2.36719 9.87019 2.36719 8.76562V4.76562Z" stroke="white" stroke-width="1.5" stroke-linejoin="round"/>
<path d="M14.3672 4.76562C14.3672 3.66106 15.2626 2.76562 16.3672 2.76562H20.3672C21.4718 2.76562 22.3672 3.66106 22.3672 4.76562V8.76562C22.3672 9.87019 21.4718 10.7656 20.3672 10.7656H16.3672C15.2626 10.7656 14.3672 9.87019 14.3672 8.76562V4.76562Z" stroke="white" stroke-width="1.5" stroke-linejoin="round"/>
<path d="M2.36719 16.7656C2.36719 15.6611 3.26262 14.7656 4.36719 14.7656H8.36719C9.47176 14.7656 10.3672 15.6611 10.3672 16.7656V20.7656C10.3672 21.8702 9.47176 22.7656 8.36719 22.7656H4.36719C3.26262 22.7656 2.36719 21.8702 2.36719 20.7656V16.7656Z" stroke="white" stroke-width="1.5" stroke-linejoin="round"/>
<path d="M14.3672 16.7656C14.3672 15.6611 15.2626 14.7656 16.3672 14.7656H20.3672C21.4718 14.7656 22.3672 15.6611 22.3672 16.7656V20.7656C22.3672 21.8702 21.4718 22.7656 20.3672 22.7656H16.3672C15.2626 22.7656 14.3672 21.8702 14.3672 20.7656V16.7656Z" stroke="white" stroke-width="1.5" stroke-linejoin="round"/>
</g>
</g>
</svg>
