<svg width="21" height="21" viewBox="0 0 21 21" fill="none" xmlns="http://www.w3.org/2000/svg">
<g id="grid">
<path id="combo shape" fill-rule="evenodd" clip-rule="evenodd" d="M2.36914 0.765625C1.26457 0.765625 0.369141 1.66106 0.369141 2.76562V6.76562C0.369141 7.87019 1.26457 8.76562 2.36914 8.76562H6.36914C7.47371 8.76562 8.36914 7.87019 8.36914 6.76562V2.76562C8.36914 1.66106 7.47371 0.765625 6.36914 0.765625H2.36914ZM14.3691 0.765625C13.2646 0.765625 12.3691 1.66106 12.3691 2.76562V6.76562C12.3691 7.87019 13.2646 8.76562 14.3691 8.76562H18.3691C19.4737 8.76562 20.3691 7.87019 20.3691 6.76562V2.76562C20.3691 1.66106 19.4737 0.765625 18.3691 0.765625H14.3691ZM0.369141 14.7656C0.369141 13.6611 1.26457 12.7656 2.36914 12.7656H6.36914C7.47371 12.7656 8.36914 13.6611 8.36914 14.7656V18.7656C8.36914 19.8702 7.47371 20.7656 6.36914 20.7656H2.36914C1.26457 20.7656 0.369141 19.8702 0.369141 18.7656V14.7656ZM14.3691 12.7656C13.2646 12.7656 12.3691 13.6611 12.3691 14.7656V18.7656C12.3691 19.8702 13.2646 20.7656 14.3691 20.7656H18.3691C19.4737 20.7656 20.3691 19.8702 20.3691 18.7656V14.7656C20.3691 13.6611 19.4737 12.7656 18.3691 12.7656H14.3691Z" fill="white"/>
</g>
</svg>
