<svg width="25" height="24" viewBox="0 0 25 24" fill="none" xmlns="http://www.w3.org/2000/svg">
<g id="Frame">
<path id="Vector" d="M6.5 23C5.11667 23 3.9375 22.5125 2.9625 21.5375C1.9875 20.5625 1.5 19.3833 1.5 18H3C3 18.9667 3.34167 19.7917 4.025 20.475C4.70833 21.1583 5.53333 21.5 6.5 21.5V23ZM10.55 23C10.05 23 9.58333 22.8875 9.15 22.6625C8.71667 22.4375 8.35833 22.1167 8.075 21.7L1.7 12.375L2.3 11.8C2.61667 11.4833 2.99167 11.3 3.425 11.25C3.85833 11.2 4.25 11.3 4.6 11.55L7.5 13.575V4C7.5 3.71667 7.59583 3.47917 7.7875 3.2875C7.97917 3.09583 8.21667 3 8.5 3C8.78333 3 9.02083 3.09583 9.2125 3.2875C9.40417 3.47917 9.5 3.71667 9.5 4V12H11.5V2C11.5 1.71667 11.5958 1.47917 11.7875 1.2875C11.9792 1.09583 12.2167 1 12.5 1C12.7833 1 13.0208 1.09583 13.2125 1.2875C13.4042 1.47917 13.5 1.71667 13.5 2V12H15.5V3C15.5 2.71667 15.5958 2.47917 15.7875 2.2875C15.9792 2.09583 16.2167 2 16.5 2C16.7833 2 17.0208 2.09583 17.2125 2.2875C17.4042 2.47917 17.5 2.71667 17.5 3V12H19.5V5C19.5 4.71667 19.5958 4.47917 19.7875 4.2875C19.9792 4.09583 20.2167 4 20.5 4C20.7833 4 21.0208 4.09583 21.2125 4.2875C21.4042 4.47917 21.5 4.71667 21.5 5V19C21.5 20.1 21.1083 21.0417 20.325 21.825C19.5417 22.6083 18.6 23 17.5 23H10.55ZM22.5 5.025C22.5 4.175 22.2083 3.45833 21.625 2.875C21.0417 2.29167 20.325 2 19.475 2V0.5C20.725 0.5 21.7917 0.941667 22.675 1.825C23.5583 2.70833 24 3.775 24 5.025H22.5Z" fill="white"/>
</g>
</svg>
