<svg width="18" height="19" viewBox="0 0 18 19" fill="none" xmlns="http://www.w3.org/2000/svg">
<g id="mic">
<path id="Combo shape" fill-rule="evenodd" clip-rule="evenodd" d="M3.98118 5.14459V11.2786C3.98118 13.6983 6.22076 15.66 8.98342 15.66C11.7461 15.66 13.9857 13.6983 13.9857 11.2786V11.0595H9.98386C9.56947 11.0595 9.23353 10.7652 9.23353 10.4023C9.23353 10.0393 9.56947 9.74506 9.98386 9.74506H13.9857V6.67808H9.98386C9.56947 6.67808 9.23353 6.38383 9.23353 6.02087C9.23353 5.6579 9.56947 5.36366 9.98386 5.36366H13.9857V5.14459C13.9857 2.7248 11.7461 0.763184 8.98342 0.763184C6.22076 0.763184 3.98118 2.7248 3.98118 5.14459ZM1.73016 9.52584C1.73016 9.16288 1.39423 8.86863 0.979827 8.86863C0.565429 8.86863 0.229492 9.16288 0.229492 9.52584V11.2784C0.229492 15.513 4.14875 18.9459 8.9834 18.9459C13.8181 18.9459 17.7373 15.513 17.7373 11.2784V9.52584C17.7373 9.16288 17.4014 8.86863 16.987 8.86863C16.5726 8.86863 16.2366 9.16288 16.2366 9.52584V11.2784C16.2366 14.7871 12.9893 17.6314 8.9834 17.6314C4.97755 17.6314 1.73016 14.7871 1.73016 11.2784V9.52584Z" fill="white"/>
</g>
</svg>
