<svg width="38" height="38" viewBox="0 0 38 38" fill="none" xmlns="http://www.w3.org/2000/svg">
<g id="Frame">
<path id="Vector" d="M6.56213 31.5169C5.7087 31.5169 4.97811 31.213 4.37036 30.6053C3.76261 29.9975 3.45874 29.267 3.45874 28.4135V9.79321C3.45874 8.93977 3.76261 8.20919 4.37036 7.60144C4.97811 6.99369 5.7087 6.68982 6.56213 6.68982H25.1824C26.0359 6.68982 26.7665 6.99369 27.3742 7.60144C27.982 8.20919 28.2858 8.93977 28.2858 9.79321V16.7758L34.4926 10.5691V27.6377L28.2858 21.4309V28.4135C28.2858 29.267 27.982 29.9975 27.3742 30.6053C26.7665 31.213 26.0359 31.5169 25.1824 31.5169H6.56213Z" fill="white"/>
</g>
</svg>
