<svg width="23" height="27" viewBox="0 0 23 27" fill="none" xmlns="http://www.w3.org/2000/svg">
<g id="notification">
<path id="Combo shape" fill-rule="evenodd" clip-rule="evenodd" d="M3.14056 21.4016H18.3563C20.764 21.4016 22.1384 18.9797 20.6938 17.2826C20.0542 16.5313 19.6601 15.6401 19.554 14.7056L19.338 12.802C19.1121 12.8282 18.8825 12.8416 18.6496 12.8416C15.3768 12.8416 12.7237 10.1884 12.7237 6.91562C12.7237 5.6371 13.1285 4.45315 13.8171 3.48498C13.7907 3.47566 13.7642 3.46646 13.7377 3.45737V3.32079C13.7377 1.66987 12.3993 0.331543 10.7484 0.331543C9.0975 0.331543 7.75917 1.66987 7.75917 3.32079V3.45737C4.93789 4.42334 2.84924 6.71924 2.5317 9.51703L1.94281 14.7056C1.83674 15.6401 1.44261 16.5313 0.803059 17.2826C-0.641595 18.9797 0.732801 21.4016 3.14056 21.4016ZM22.6003 6.91567C22.6003 9.09755 20.8315 10.8663 18.6496 10.8663C16.4678 10.8663 14.699 9.09755 14.699 6.91567C14.699 4.73379 16.4678 2.96503 18.6496 2.96503C20.8315 2.96503 22.6003 4.73379 22.6003 6.91567ZM10.7484 26.6692C12.5347 26.6692 14.0599 25.6146 14.6623 24.1296C14.6874 24.0677 14.699 24.0012 14.699 23.9344C14.699 23.6264 14.4493 23.3767 14.1413 23.3767H7.35541C7.04741 23.3767 6.79772 23.6264 6.79772 23.9344C6.79772 24.0012 6.80935 24.0677 6.83447 24.1296C7.43678 25.6146 8.96199 26.6692 10.7484 26.6692Z" fill="#28303F"/>
</g>
</svg>
