<svg width="24" height="24" viewBox="0 0 24 24" fill="none" xmlns="http://www.w3.org/2000/svg">
<g id="fluent:poll-horizontal-16-regular">
<path id="Vector" d="M22.5 12C22.5 11.2044 22.1839 10.4413 21.6213 9.87868C21.0587 9.31607 20.2956 9 19.5 9H4.5C3.70435 9 2.94129 9.31607 2.37868 9.87868C1.81607 10.4413 1.5 11.2044 1.5 12C1.5 12.7956 1.81607 13.5587 2.37868 14.1213C2.94129 14.6839 3.70435 15 4.5 15H19.5C20.2956 15 21.0587 14.6839 21.6213 14.1213C22.1839 13.5587 22.5 12.7956 22.5 12ZM19.5 13.5H4.5C4.10218 13.5 3.72064 13.342 3.43934 13.0607C3.15804 12.7794 3 12.3978 3 12C3 11.6022 3.15804 11.2206 3.43934 10.9393C3.72064 10.658 4.10218 10.5 4.5 10.5H19.5C19.8978 10.5 20.2794 10.658 20.5607 10.9393C20.842 11.2206 21 11.6022 21 12C21 12.3978 20.842 12.7794 20.5607 13.0607C20.2794 13.342 19.8978 13.5 19.5 13.5ZM13.5 4.5C13.5 3.70435 13.1839 2.94129 12.6213 2.37868C12.0587 1.81607 11.2956 1.5 10.5 1.5H4.5C3.70435 1.5 2.94129 1.81607 2.37868 2.37868C1.81607 2.94129 1.5 3.70435 1.5 4.5C1.5 5.29565 1.81607 6.05871 2.37868 6.62132C2.94129 7.18393 3.70435 7.5 4.5 7.5H10.5C11.2956 7.5 12.0587 7.18393 12.6213 6.62132C13.1839 6.05871 13.5 5.29565 13.5 4.5ZM4.5 6C4.10218 6 3.72064 5.84196 3.43934 5.56066C3.15804 5.27936 3 4.89782 3 4.5C3 4.10218 3.15804 3.72064 3.43934 3.43934C3.72064 3.15804 4.10218 3 4.5 3H10.5C10.8978 3 11.2794 3.15804 11.5607 3.43934C11.842 3.72064 12 4.10218 12 4.5C12 4.89782 11.842 5.27936 11.5607 5.56066C11.2794 5.84196 10.8978 6 10.5 6H4.5ZM13.5 16.5C14.2956 16.5 15.0587 16.8161 15.6213 17.3787C16.1839 17.9413 16.5 18.7044 16.5 19.5C16.5 20.2956 16.1839 21.0587 15.6213 21.6213C15.0587 22.1839 14.2956 22.5 13.5 22.5H4.5C3.70435 22.5 2.94129 22.1839 2.37868 21.6213C1.81607 21.0587 1.5 20.2956 1.5 19.5C1.5 18.7044 1.81607 17.9413 2.37868 17.3787C2.94129 16.8161 3.70435 16.5 4.5 16.5H13.5ZM13.5 21C13.8978 21 14.2794 20.842 14.5607 20.5607C14.842 20.2794 15 19.8978 15 19.5C15 19.1022 14.842 18.7206 14.5607 18.4393C14.2794 18.158 13.8978 18 13.5 18H4.5C4.10218 18 3.72064 18.158 3.43934 18.4393C3.15804 18.7206 3 19.1022 3 19.5C3 19.8978 3.15804 20.2794 3.43934 20.5607C3.72064 20.842 4.10218 21 4.5 21H13.5Z" fill="#E0E5EB"/>
</g>
</svg>
