<svg width="25" height="24" viewBox="0 0 25 24" fill="none" xmlns="http://www.w3.org/2000/svg">
<g id="Frame">
<path id="Vector" d="M12.5 10H17.5V8H12.5V10ZM12.5 16H17.5V14H12.5V16ZM9.5 11C10.05 11 10.5208 10.8042 10.9125 10.4125C11.3042 10.0208 11.5 9.55 11.5 9C11.5 8.45 11.3042 7.97917 10.9125 7.5875C10.5208 7.19583 10.05 7 9.5 7C8.95 7 8.47917 7.19583 8.0875 7.5875C7.69583 7.97917 7.5 8.45 7.5 9C7.5 9.55 7.69583 10.0208 8.0875 10.4125C8.47917 10.8042 8.95 11 9.5 11ZM9.5 17C10.05 17 10.5208 16.8042 10.9125 16.4125C11.3042 16.0208 11.5 15.55 11.5 15C11.5 14.45 11.3042 13.9792 10.9125 13.5875C10.5208 13.1958 10.05 13 9.5 13C8.95 13 8.47917 13.1958 8.0875 13.5875C7.69583 13.9792 7.5 14.45 7.5 15C7.5 15.55 7.69583 16.0208 8.0875 16.4125C8.47917 16.8042 8.95 17 9.5 17ZM5.5 21C4.95 21 4.47917 20.8042 4.0875 20.4125C3.69583 20.0208 3.5 19.55 3.5 19V5C3.5 4.45 3.69583 3.97917 4.0875 3.5875C4.47917 3.19583 4.95 3 5.5 3H19.5C20.05 3 20.5208 3.19583 20.9125 3.5875C21.3042 3.97917 21.5 4.45 21.5 5V19C21.5 19.55 21.3042 20.0208 20.9125 20.4125C20.5208 20.8042 20.05 21 19.5 21H5.5Z" fill="#FBFDFF"/>
</g>
</svg>
