<svg width="23" height="22" viewBox="0 0 23 22" fill="none" xmlns="http://www.w3.org/2000/svg">
<g id="huge-icon/education/outline/quiz">
<path id="Vector" d="M16.3726 6.17276C19.0986 7.39695 21 10.1611 21 13.375V16.75C21 17.9926 20.0051 19 18.7778 19H12.1111C9.2084 19 6.73898 17.1217 5.82379 14.5M16.3726 6.17276C15.6711 3.20566 13.0344 1 9.88889 1H8.77778C4.48223 1 1 4.52576 1 8.875V12.25C1 13.4926 1.99492 14.5 3.22222 14.5H5.82379M16.3726 6.17276C16.4922 6.67875 16.5556 7.20688 16.5556 7.75C16.5556 11.4779 13.5708 14.5 9.88889 14.5H5.82379M9 8C10.1046 8 11 7.10457 11 6C11 4.89543 10.1046 4 9 4C7.89543 4 7 4.89543 7 6" stroke="#E0E5EB" stroke-width="1.5" stroke-linecap="round" stroke-linejoin="round"/>
<path id="Ellipse 579" d="M10 11C10 11.5523 9.55228 12 9 12C8.44772 12 8 11.5523 8 11C8 10.4477 8.44772 10 9 10C9.55228 10 10 10.4477 10 11Z" fill="#E0E5EB"/>
</g>
</svg>
