<svg width="24" height="24" viewBox="0 0 24 24" fill="none" xmlns="http://www.w3.org/2000/svg">
<g id="Outline/Send">
<path id="Vector" fill-rule="evenodd" clip-rule="evenodd" d="M4.70027 3.19511C5.0941 3.12491 5.50005 3.18251 5.85881 3.35949L5.86671 3.36339L20.1272 10.6077C20.3431 10.7175 20.5247 10.8851 20.6513 11.0915C20.7766 11.2958 20.8435 11.5304 20.845 11.7698C20.845 11.7723 20.845 11.7748 20.845 11.7773L20.845 11.78C20.8446 12.0214 20.7776 12.2581 20.6513 12.4639C20.5247 12.6704 20.3434 12.8378 20.1275 12.9476L5.85884 20.2058C5.50008 20.3827 5.0941 20.4403 4.70027 20.3701C4.30644 20.2999 3.94539 20.1056 3.66988 19.8155C3.39436 19.5255 3.21883 19.155 3.16894 18.758C3.11905 18.3611 3.1974 17.9587 3.39256 17.6095C3.39739 17.6008 3.40239 17.5923 3.40756 17.5838L6.96123 11.7777L3.40786 5.98186C3.40259 5.97326 3.39749 5.96455 3.39256 5.95574C3.1974 5.60654 3.11905 5.20407 3.16894 4.80716C3.21883 4.41025 3.39436 4.0397 3.66988 3.74966C3.94539 3.45963 4.30644 3.26531 4.70027 3.19511ZM18.3224 11.0273L5.1923 4.7033C5.12127 4.66901 5.0412 4.65798 4.96349 4.67184C4.88473 4.68587 4.81252 4.72474 4.75741 4.78275C4.70231 4.84075 4.6672 4.91486 4.65723 4.99424C4.64771 5.06996 4.66152 5.14668 4.69669 5.21421L8.43577 11.0273H18.3224ZM8.39859 12.5273H18.3229L5.19216 18.862C5.12116 18.8962 5.04115 18.9072 4.96349 18.8934C4.88472 18.8793 4.81251 18.8405 4.75741 18.7825C4.70231 18.7244 4.6672 18.6503 4.65723 18.571C4.6477 18.4952 4.66155 18.4184 4.69678 18.3508L8.39859 12.5273Z" fill="#C5C6D0"/>
</g>
</svg>
