<svg width="13" height="14" viewBox="0 0 13 14" fill="none" xmlns="http://www.w3.org/2000/svg">
<g id="Frame">
<path id="Vector" d="M7.49167 11.5833V10.49C8.29167 10.2589 8.93611 9.81445 9.425 9.15667C9.91389 8.49889 10.1583 7.75222 10.1583 6.91667C10.1583 6.08111 9.91389 5.33444 9.425 4.67667C8.93611 4.01889 8.29167 3.57444 7.49167 3.34333V2.25C8.59389 2.49889 9.49167 3.05667 10.185 3.92333C10.8783 4.79 11.225 5.78778 11.225 6.91667C11.225 8.04556 10.8783 9.04333 10.185 9.91C9.49167 10.7767 8.59389 11.3344 7.49167 11.5833ZM1.625 8.53V5.33H3.75833L6.425 2.66333V11.1967L3.75833 8.53H1.625ZM7.49167 9.06333V4.77C7.90944 4.96556 8.23611 5.25889 8.47167 5.65C8.70722 6.04111 8.825 6.46778 8.825 6.93C8.825 7.38333 8.70722 7.80333 8.47167 8.19C8.23611 8.57667 7.90944 8.86778 7.49167 9.06333Z" fill="white"/>
</g>
</svg>
