<svg width="21" height="14" viewBox="0 0 21 14" fill="none" xmlns="http://www.w3.org/2000/svg">
<g id="user">
<path id="combo shape" fill-rule="evenodd" clip-rule="evenodd" d="M10.5 6C12.1569 6 13.5 4.65685 13.5 3C13.5 1.34315 12.1569 0 10.5 0C8.84315 0 7.5 1.34315 7.5 3C7.5 4.65685 8.84315 6 10.5 6ZM10.5 14C13.8137 14 16.5 12.6569 16.5 11C16.5 9.34315 13.8137 8 10.5 8C7.18629 8 4.5 9.34315 4.5 11C4.5 12.6569 7.18629 14 10.5 14ZM4.88165 8.01904C2.41199 8.17134 0.5 9.22409 0.5 10.5001C0.5 11.5521 1.79949 12.4523 3.63963 12.8213C3.22843 12.2645 3 11.6483 3 11.0001C3 9.85669 3.71076 8.81288 4.88165 8.01904ZM18.0001 11.0001C18.0001 11.6483 17.7716 12.2645 17.3604 12.8213C19.2006 12.4523 20.5001 11.5521 20.5001 10.5001C20.5001 9.22409 18.5881 8.17134 16.1184 8.01904C17.2893 8.81288 18.0001 9.85669 18.0001 11.0001ZM14.2183 5.53539C14.7115 4.8134 15 3.94039 15 3C15 2.68794 14.9682 2.3833 14.9077 2.08914C15.0949 2.0312 15.2938 2 15.5 2C16.6045 2 17.5 2.89543 17.5 4C17.5 5.10457 16.6045 6 15.5 6C15.0123 6 14.5653 5.82544 14.2183 5.53539ZM5.5 2C5.70619 2 5.90509 2.0312 6.09223 2.08914C6.03176 2.3833 6 2.68794 6 3C6 3.94039 6.28845 4.8134 6.78171 5.53539C6.43462 5.82544 5.9877 6 5.5 6C4.39543 6 3.5 5.10457 3.5 4C3.5 2.89543 4.39543 2 5.5 2Z" fill="white"/>
</g>
</svg>
