<svg width="19" height="18" viewBox="0 0 19 18" fill="none" xmlns="http://www.w3.org/2000/svg">
<g id="user-add">
<path id="combo shape" fill-rule="evenodd" clip-rule="evenodd" d="M11.5 4C11.5 6.20914 9.70914 8 7.5 8C5.29086 8 3.5 6.20914 3.5 4C3.5 1.79086 5.29086 0 7.5 0C9.70914 0 11.5 1.79086 11.5 4ZM14.5 14C14.5 16.2091 11.366 18 7.5 18C3.63401 18 0.5 16.2091 0.5 14C0.5 11.7909 3.63401 10 7.5 10C11.366 10 14.5 11.7909 14.5 14ZM15.5 9.75C15.0858 9.75 14.75 9.41421 14.75 9V7.75H13.5C13.0858 7.75 12.75 7.41421 12.75 7C12.75 6.58579 13.0858 6.25 13.5 6.25H14.75V5C14.75 4.58579 15.0858 4.25 15.5 4.25C15.9142 4.25 16.25 4.58579 16.25 5V6.25H17.5C17.9142 6.25 18.25 6.58579 18.25 7C18.25 7.41421 17.9142 7.75 17.5 7.75H16.25V9C16.25 9.41421 15.9142 9.75 15.5 9.75Z" fill="white"/>
</g>
</svg>
