<svg width="40" height="30" viewBox="0 0 40 30" fill="none" xmlns="http://www.w3.org/2000/svg">
<g id="monday-1 1" clip-path="url(#clip0_17616_83228)">
<g id="Group 1000002977">
<path id="Vector" d="M20.4155 29.2081C18.7078 29.1579 17.2989 28.2514 16.3992 26.3592C15.4771 24.4032 15.5173 22.4008 16.5005 20.4931C18.8411 15.953 21.2123 11.4379 23.569 6.91129C24.051 5.98547 24.5217 5.04613 25.0261 4.13771C25.6958 2.89522 26.7421 2.01633 27.9423 1.68817C29.1426 1.36002 30.4019 1.60853 31.4521 2.38079C33.6706 4.02561 34.4128 7.44667 33.0312 10.1429C30.207 15.6772 27.3427 21.1844 24.4381 26.6646C23.5433 28.3596 22.1858 29.1772 20.4155 29.2081Z" fill="#FFCB00"/>
<path id="Vector_2" d="M5.74558 29.2049C4.02181 29.1546 2.62095 28.2076 1.73899 26.3231C0.829713 24.3671 0.887547 22.3608 1.87393 20.4532C4.39184 15.5928 6.92099 10.7395 9.46139 5.89334C9.78269 5.26711 10.104 4.62542 10.4478 4.01852C11.1449 2.803 12.2079 1.96162 13.4116 1.67251C14.6153 1.3834 15.8653 1.66926 16.8969 2.46957C17.9285 3.26987 18.6608 4.5218 18.9386 5.96028C19.2164 7.39875 19.018 8.91086 18.3854 10.1764C15.5709 15.6443 12.7177 21.0929 9.86301 26.5357C8.93607 28.3003 7.57216 29.174 5.74558 29.2049Z" fill="#FF3D57"/>
<path id="Vector_3" d="M35.1759 18.1251C37.7736 18.1406 39.8765 20.6242 39.8717 23.6703C39.8717 26.7628 37.7126 29.2561 35.0908 29.2175C32.469 29.1788 30.403 26.7222 30.4063 23.6626C30.4095 20.5585 32.5204 18.1058 35.1759 18.1251Z" fill="#00D647"/>
</g>
</g>
<defs>
<clipPath id="clip0_17616_83228">
<rect width="39.0458" height="29.1068" fill="white" transform="translate(0.828125 0.445312)"/>
</clipPath>
</defs>
</svg>
