<svg width="22" height="22" viewBox="0 0 22 22" fill="none" xmlns="http://www.w3.org/2000/svg">
<g id="lucide/user-cog">
<path id="Vector" d="M9.13945 13.4903H5.65944C4.73649 13.4903 3.85134 13.8569 3.19871 14.5096C2.54609 15.1622 2.17944 16.0473 2.17944 16.9703V18.7103M19.3184 14.7083L18.5354 14.4473M13.6634 12.5333L12.8804 12.2723M14.8814 16.7093L15.1424 15.9263M17.0564 11.0543L17.3174 10.2713M17.4914 16.7093L17.1434 15.8393M15.0554 11.1413L14.7074 10.2713M12.8804 14.8823L13.7504 14.5343M18.4484 12.4463L19.3184 12.0983M18.7094 13.4903C18.7094 14.9318 17.5409 16.1003 16.0994 16.1003C14.658 16.1003 13.4894 14.9318 13.4894 13.4903C13.4894 12.0488 14.658 10.8803 16.0994 10.8803C17.5409 10.8803 18.7094 12.0488 18.7094 13.4903ZM11.7494 6.53029C11.7494 8.45224 10.1914 10.0103 8.26945 10.0103C6.34749 10.0103 4.78944 8.45224 4.78944 6.53029C4.78944 4.60834 6.34749 3.05029 8.26945 3.05029C10.1914 3.05029 11.7494 4.60834 11.7494 6.53029Z" stroke="white" stroke-width="1.74" stroke-linecap="round" stroke-linejoin="round"/>
</g>
</svg>
