<svg width="24" height="24" viewBox="0 0 24 24" fill="none" xmlns="http://www.w3.org/2000/svg">
<g id="lucide/user-round-plus">
<path id="Vector" d="M2 21C1.99992 19.4604 2.44413 17.9534 3.27935 16.6599C4.11456 15.3665 5.30527 14.3415 6.7086 13.708C8.11193 13.0746 9.66824 12.8595 11.1908 13.0887C12.7133 13.3179 14.1373 13.9815 15.292 15M19 16V22M22 19H16M15 8.00003C15 10.7615 12.7614 13 10 13C7.23858 13 5 10.7615 5 8.00003C5 5.23861 7.23858 3.00003 10 3.00003C12.7614 3.00003 15 5.23861 15 8.00003Z" stroke="white" stroke-width="2" stroke-linecap="round" stroke-linejoin="round"/>
</g>
</svg>
