<svg width="24" height="24" viewBox="0 0 24 24" fill="none" xmlns="http://www.w3.org/2000/svg">
<g id="lucide/newspaper">
<path id="Vector" d="M6.5 18H18.5C18.8978 18 19.2794 17.842 19.5607 17.5607C19.842 17.2794 20 16.8978 20 16.5V4.5C20 4.10218 19.842 3.72064 19.5607 3.43934C19.2794 3.15804 18.8978 3 18.5 3H9.5C9.10218 3 8.72064 3.15804 8.43934 3.43934C8.15804 3.72064 8 4.10218 8 4.5V16.5C8 16.8978 7.84196 17.2794 7.56066 17.5607C7.27936 17.842 6.89782 18 6.5 18ZM6.5 18C6.10218 18 5.72064 17.842 5.43934 17.5607C5.15804 17.2794 5 16.8978 5 16.5V9.75C5 8.925 5.675 8.25 6.5 8.25H8M17 12H11M14.75 15H11M11 6H17V9H11V6Z" stroke="#ED1C24" stroke-linecap="round" stroke-linejoin="round"/>
</g>
</svg>
