<svg width="16" height="16" viewBox="0 0 16 16" fill="none" xmlns="http://www.w3.org/2000/svg">
<g id="noun-active-learning-27461" clip-path="url(#clip0_1_985)">
<g id="Group">
<path id="Vector" d="M14.932 0H8.54897C7.95974 0 7.48047 0.4784 7.48047 1.06672V4.97808C7.48047 5.56624 7.95974 6.04464 8.54897 6.04464H8.77306C8.653 6.40784 8.4201 6.91616 8.00975 7.16192C7.86886 7.24592 7.80378 7.41552 7.85251 7.57184C7.89883 7.72144 8.03716 7.8224 8.19281 7.8224C8.1997 7.8224 8.20659 7.82208 8.21396 7.82176C8.31367 7.81584 10.5629 7.66368 11.2872 6.04464H14.9797C15.0018 6.04464 15.0235 6.04256 15.0443 6.03872C15.581 5.9824 16.0005 5.52832 16.0005 4.97808V1.06688C16.0005 0.4792 15.5213 0.00064 14.932 0ZM15.2883 4.97808C15.2883 5.17424 15.1286 5.3336 14.932 5.3336H11.043C10.888 5.3336 10.7509 5.43328 10.7038 5.58048C10.4675 6.31488 9.77665 6.70048 9.17603 6.9008C9.48524 6.34448 9.57869 5.78208 9.58478 5.74496C9.60113 5.64224 9.57163 5.53744 9.50399 5.45824C9.43619 5.37888 9.33745 5.3336 9.2331 5.3336H8.54913C8.35262 5.3336 8.19297 5.17424 8.19297 4.97808V1.06672C8.19297 0.8704 8.35262 0.71104 8.54913 0.71104L14.9321 0.71152C15.1288 0.71152 15.2884 0.87088 15.2884 1.06704V4.97808H15.2883Z" fill="#BF9E1F"/>
<path id="Vector_2" d="M4.80835 9.42246C5.79197 9.42246 6.58935 8.62653 6.58935 7.6447C6.58935 6.66287 5.79197 5.86694 4.80835 5.86694C3.82473 5.86694 3.02734 6.66287 3.02734 7.6447C3.02734 8.62653 3.82473 9.42246 4.80835 9.42246Z" fill="#BF9E1F"/>
<path id="Vector_3" d="M13.1792 14.0446C13.1792 13.5535 12.7805 13.1555 12.2886 13.1555H12.2687L11.9175 11.9868C11.8611 11.7988 11.663 11.6926 11.474 11.7481C11.2855 11.8047 11.1786 12.003 11.235 12.191L11.5248 13.1555H9.88423L8.01443 10.6667C7.84628 10.4428 7.58244 10.311 7.30193 10.311H3.16496L1.78084 8.10075V4.44475C1.78084 3.95371 1.3822 3.55579 0.890421 3.55579C0.398485 3.55579 0 3.95355 0 4.44475V8.35579C0 8.52235 0.0469655 8.68571 0.135286 8.82667L1.60276 12.2889V14.0447V15.9999H7.6581V13.1556L8.7266 14.5777C8.89491 14.8017 9.15859 14.9335 9.4391 14.9335H12.0592L12.3037 15.7465C12.35 15.9006 12.4915 15.9999 12.6449 15.9999C12.6788 15.9999 12.7132 15.9951 12.7472 15.9849C12.9357 15.9284 13.0426 15.7302 12.9862 15.5422L12.7618 14.795C13.0117 14.6375 13.1792 14.3615 13.1792 14.0446Z" fill="#BF9E1F"/>
</g>
</g>
<defs>
<clipPath id="clip0_1_985">
<rect width="16" height="16" fill="white"/>
</clipPath>
</defs>
</svg>
