<svg width="16" height="14" viewBox="0 0 16 14" fill="none" xmlns="http://www.w3.org/2000/svg">
<rect width="16" height="14" fill="#F5F5F5"/>
<g id="Add leave policy 1" clip-path="url(#clip0_188_3326)">
<rect width="1440" height="1470" transform="translate(-872 -145)" fill="white"/>
<rect id="BG" x="-622" y="-44" width="1190" height="1083" fill="white"/>
<g id="Frame 1000006126">
<g id="Frame 1000006138">
<g id="Frame 1000006128">
<g id="Frame 2">
<rect x="-12" y="-10" width="87" height="34" rx="17" fill="white"/>
<rect x="-11.5" y="-9.5" width="86" height="33" rx="16.5" stroke="#1436B0" stroke-opacity="0.2"/>
<g id="filter-funnel-02">
<path id="Icon" d="M2.25726 2.77791C1.75303 2.21437 1.50092 1.93259 1.49141 1.69312C1.48315 1.48509 1.57255 1.28515 1.73309 1.15259C1.91789 1 2.29599 1 3.05218 1H12.9475C13.7037 1 14.0818 1 14.2666 1.15259C14.4271 1.28515 14.5165 1.48509 14.5082 1.69312C14.4987 1.93259 14.2466 2.21437 13.7424 2.77791L9.93824 7.02962C9.83773 7.14196 9.78747 7.19813 9.75163 7.26205C9.71985 7.31875 9.69653 7.37978 9.68241 7.44323C9.6665 7.51476 9.66649 7.59013 9.66649 7.74087V11.3056C9.66649 11.436 9.66649 11.5011 9.64547 11.5575C9.62689 11.6073 9.59667 11.6519 9.55733 11.6877C9.51281 11.7281 9.45229 11.7524 9.33124 11.8008L7.06457 12.7074C6.81954 12.8054 6.69703 12.8545 6.59868 12.834C6.51267 12.8161 6.4372 12.765 6.38866 12.6918C6.33316 12.6081 6.33316 12.4762 6.33316 12.2122V7.74087C6.33316 7.59013 6.33316 7.51476 6.31724 7.44323C6.30312 7.37978 6.2798 7.31875 6.24802 7.26205C6.21219 7.19813 6.16193 7.14196 6.06142 7.02962L2.25726 2.77791Z" stroke="#1436B0" stroke-width="1.33333" stroke-linecap="round" stroke-linejoin="round"/>
</g>
</g>
</g>
</g>
</g>
</g>
<defs>
<clipPath id="clip0_188_3326">
<rect width="1440" height="1470" fill="white" transform="translate(-872 -145)"/>
</clipPath>
</defs>
</svg>
