<svg width="34" height="33" viewBox="0 0 34 33" fill="none" xmlns="http://www.w3.org/2000/svg">
<g id="&#240;&#159;&#166;&#134; icon &#34;google icon&#34;">
<path id="Vector" d="M33.6294 13.2685H32.3004V13.2H17.4511V19.8H26.7756C25.4153 23.642 21.7598 26.4 17.4511 26.4C11.984 26.4 7.55149 21.9673 7.55149 16.5C7.55149 11.0327 11.984 6.6 17.4511 6.6C19.9746 6.6 22.2705 7.55205 24.0186 9.10717L28.6854 4.44015C25.7386 1.69372 21.797 0 17.4511 0C8.33933 0 0.951782 7.38787 0.951782 16.5C0.951782 25.6121 8.33933 33 17.4511 33C26.5628 33 33.9503 25.6121 33.9503 16.5C33.9503 15.3937 33.8365 14.3138 33.6294 13.2685Z" fill="#FFC107"/>
<path id="Vector_2" d="M2.85413 8.82008L8.27496 12.7957C9.74175 9.1641 13.294 6.6 17.451 6.6C19.9746 6.6 22.2705 7.55205 24.0186 9.10717L28.6854 4.44015C25.7386 1.69372 21.797 0 17.451 0C11.1137 0 5.61776 3.57802 2.85413 8.82008Z" fill="#FF3D00"/>
<path id="Vector_3" d="M17.451 32.9999C21.7128 32.9999 25.5851 31.3689 28.5129 28.7165L23.4064 24.3952C21.7499 25.65 19.6908 26.3999 17.451 26.3999C13.1595 26.3999 9.51567 23.6634 8.14293 19.8445L2.76251 23.9901C5.49314 29.3336 11.0386 32.9999 17.451 32.9999Z" fill="#4CAF50"/>
<path id="Vector_4" d="M33.6301 13.2685H32.301V13.2H17.451V19.8H26.776C26.1226 21.6455 24.9354 23.237 23.4042 24.3961C23.4051 24.3953 23.4059 24.3953 23.4067 24.3944L28.5135 28.7158C28.1521 29.0441 33.951 24.75 33.951 16.5C33.951 15.3937 33.8372 14.3138 33.6301 13.2685Z" fill="#1976D2"/>
</g>
</svg>
