<svg width="15" height="15" viewBox="0 0 15 15" fill="none" xmlns="http://www.w3.org/2000/svg">
<g id="noun-active-learning-27461" clip-path="url(#clip0_1_1020)">
<g id="Group">
<path id="Vector" d="M13.9985 0H8.01442C7.46201 0 7.0127 0.4485 7.0127 1.00005V4.66695C7.0127 5.21835 7.46201 5.66685 8.01442 5.66685H8.2245C8.11195 6.00735 7.8936 6.4839 7.5089 6.7143C7.37681 6.79305 7.3158 6.95205 7.36148 7.0986C7.40491 7.23885 7.5346 7.3335 7.68051 7.3335C7.68697 7.3335 7.69343 7.3332 7.70035 7.3329C7.79382 7.32735 9.90245 7.1847 10.5815 5.66685H14.0432C14.064 5.66685 14.0843 5.6649 14.1038 5.6613C14.6069 5.6085 15.0002 5.1828 15.0002 4.66695V1.0002C15.0002 0.44925 14.551 0.0006 13.9985 0ZM14.3325 4.66695C14.3325 4.85085 14.1828 5.00025 13.9985 5.00025H10.3525C10.2072 5.00025 10.0787 5.0937 10.0345 5.2317C9.81304 5.9202 9.16536 6.2817 8.60229 6.4695C8.89217 5.94795 8.97978 5.4207 8.98549 5.3859C9.00081 5.2896 8.97316 5.19135 8.90975 5.1171C8.84618 5.0427 8.75361 5.00025 8.65579 5.00025H8.01457C7.83033 5.00025 7.68066 4.85085 7.68066 4.66695V1.00005C7.68066 0.816 7.83033 0.6666 8.01457 0.6666L13.9986 0.66705C14.183 0.66705 14.3327 0.81645 14.3327 1.00035V4.66695H14.3325Z" fill="#009A4E"/>
<path id="Vector_2" d="M4.50758 8.83354C5.42972 8.83354 6.17727 8.08736 6.17727 7.16689C6.17727 6.24643 5.42972 5.50024 4.50758 5.50024C3.58544 5.50024 2.83789 6.24643 2.83789 7.16689C2.83789 8.08736 3.58544 8.83354 4.50758 8.83354Z" fill="#009A4E"/>
<path id="Vector_3" d="M12.3555 13.1669C12.3555 12.7065 11.9818 12.3333 11.5206 12.3333H11.5019L11.1727 11.2377C11.1198 11.0615 10.934 10.9619 10.7569 11.0139C10.5802 11.067 10.4799 11.2529 10.5328 11.4291L10.8045 12.3333H9.26646L7.51352 10.0001C7.35589 9.79022 7.10854 9.66662 6.84556 9.66662H2.96715L1.66954 7.59452V4.16702C1.66954 3.70667 1.29581 3.33362 0.834769 3.33362C0.37358 3.33362 0 3.70652 0 4.16702V7.83362C0 7.98977 0.0440301 8.14292 0.126831 8.27507L1.50258 11.5209V13.167V15H7.17947V12.3335L8.18119 13.6667C8.33898 13.8767 8.58618 14.0003 8.84916 14.0003H11.3055L11.5347 14.7624C11.5781 14.9069 11.7108 15 11.8546 15C11.8863 15 11.9186 14.9955 11.9505 14.9859C12.1272 14.933 12.2275 14.7471 12.1746 14.5709L11.9642 13.8704C12.1985 13.7228 12.3555 13.464 12.3555 13.1669Z" fill="#009A4E"/>
</g>
</g>
<defs>
<clipPath id="clip0_1_1020">
<rect width="15" height="15" fill="white"/>
</clipPath>
</defs>
</svg>
