<svg width="42" height="42" viewBox="0 0 42 42" fill="none" xmlns="http://www.w3.org/2000/svg">
<g id="lucide/mail-open">
<path id="Vector" d="M38.5 17.5C38.5 16.3975 37.975 15.365 37.1 14.7L23.1 4.2C22.4942 3.74562 21.7573 3.5 21 3.5C20.2427 3.5 19.5058 3.74562 18.9 4.2L4.9 14.7C4.46531 15.026 4.1125 15.4488 3.8695 15.9348C3.62651 16.4207 3.5 16.9566 3.5 17.5M38.5 17.5V35C38.5 35.9283 38.1313 36.8185 37.4749 37.4749C36.8185 38.1313 35.9283 38.5 35 38.5H7C6.07174 38.5 5.1815 38.1313 4.52513 37.4749C3.86875 36.8185 3.5 35.9283 3.5 35V17.5M38.5 17.5L22.8025 27.475C22.2622 27.8135 21.6376 27.993 21 27.993C20.3624 27.993 19.7378 27.8135 19.1975 27.475L3.5 17.5" stroke="black" stroke-width="2" stroke-linecap="round" stroke-linejoin="round"/>
</g>
</svg>
