<svg width="24" height="13" viewBox="0 0 24 13" fill="none" xmlns="http://www.w3.org/2000/svg">
<path id="Vector" d="M0 12.5V10.925C0 10.2083 0.366667 9.625 1.1 9.175C1.83333 8.725 2.8 8.5 4 8.5C4.21667 8.5 4.425 8.50417 4.625 8.5125C4.825 8.52083 5.01667 8.54167 5.2 8.575C4.96667 8.925 4.79167 9.29167 4.675 9.675C4.55833 10.0583 4.5 10.4583 4.5 10.875V12.5H0ZM6 12.5V10.875C6 10.3417 6.14583 9.85417 6.4375 9.4125C6.72917 8.97083 7.14167 8.58333 7.675 8.25C8.20833 7.91667 8.84583 7.66667 9.5875 7.5C10.3292 7.33333 11.1333 7.25 12 7.25C12.8833 7.25 13.6958 7.33333 14.4375 7.5C15.1792 7.66667 15.8167 7.91667 16.35 8.25C16.8833 8.58333 17.2917 8.97083 17.575 9.4125C17.8583 9.85417 18 10.3417 18 10.875V12.5H6ZM19.5 12.5V10.875C19.5 10.4417 19.4458 10.0333 19.3375 9.65C19.2292 9.26667 19.0667 8.90833 18.85 8.575C19.0333 8.54167 19.2208 8.52083 19.4125 8.5125C19.6042 8.50417 19.8 8.5 20 8.5C21.2 8.5 22.1667 8.72083 22.9 9.1625C23.6333 9.60417 24 10.1917 24 10.925V12.5H19.5ZM8.125 10.5H15.9C15.7333 10.1667 15.2708 9.875 14.5125 9.625C13.7542 9.375 12.9167 9.25 12 9.25C11.0833 9.25 10.2458 9.375 9.4875 9.625C8.72917 9.875 8.275 10.1667 8.125 10.5ZM4 7.5C3.45 7.5 2.97917 7.30417 2.5875 6.9125C2.19583 6.52083 2 6.05 2 5.5C2 4.93333 2.19583 4.45833 2.5875 4.075C2.97917 3.69167 3.45 3.5 4 3.5C4.56667 3.5 5.04167 3.69167 5.425 4.075C5.80833 4.45833 6 4.93333 6 5.5C6 6.05 5.80833 6.52083 5.425 6.9125C5.04167 7.30417 4.56667 7.5 4 7.5ZM20 7.5C19.45 7.5 18.9792 7.30417 18.5875 6.9125C18.1958 6.52083 18 6.05 18 5.5C18 4.93333 18.1958 4.45833 18.5875 4.075C18.9792 3.69167 19.45 3.5 20 3.5C20.5667 3.5 21.0417 3.69167 21.425 4.075C21.8083 4.45833 22 4.93333 22 5.5C22 6.05 21.8083 6.52083 21.425 6.9125C21.0417 7.30417 20.5667 7.5 20 7.5ZM12 6.5C11.1667 6.5 10.4583 6.20833 9.875 5.625C9.29167 5.04167 9 4.33333 9 3.5C9 2.65 9.29167 1.9375 9.875 1.3625C10.4583 0.7875 11.1667 0.5 12 0.5C12.85 0.5 13.5625 0.7875 14.1375 1.3625C14.7125 1.9375 15 2.65 15 3.5C15 4.33333 14.7125 5.04167 14.1375 5.625C13.5625 6.20833 12.85 6.5 12 6.5ZM12 4.5C12.2833 4.5 12.5208 4.40417 12.7125 4.2125C12.9042 4.02083 13 3.78333 13 3.5C13 3.21667 12.9042 2.97917 12.7125 2.7875C12.5208 2.59583 12.2833 2.5 12 2.5C11.7167 2.5 11.4792 2.59583 11.2875 2.7875C11.0958 2.97917 11 3.21667 11 3.5C11 3.78333 11.0958 4.02083 11.2875 4.2125C11.4792 4.40417 11.7167 4.5 12 4.5Z" fill="#5F6368"/>
</svg>
