<svg width="22" height="22" viewBox="0 0 22 22" fill="none" xmlns="http://www.w3.org/2000/svg">
<g id="np_money_888720_000000 1">
<g id="Group">
<path id="Vector" d="M14.3917 5.63746C15.2167 7.058 16.1337 8.66246 16.8667 9.89996C14.5292 10.8169 13.1542 12.1919 11.8712 13.475C10.6337 14.7125 9.57921 15.7669 7.60867 16.408C6.96671 15.308 6.00421 13.6125 5.13367 12.1455C7.47117 11.2285 8.84617 9.85354 10.1292 8.5705C11.3667 7.333 12.4203 6.233 14.3917 5.63746ZM15.3078 3.52942C8.61673 4.76692 9.07477 9.76246 2.38281 11L6.69085 18.4705C13.3828 17.233 12.9248 12.2375 19.6167 11L15.3078 3.52942Z" fill="#ED1C24"/>
<path id="Vector_2" d="M12.7233 10.034C13.5844 11.525 13.5354 13.1639 12.615 13.6959C11.6937 14.227 10.25 13.4501 9.3889 11.9591C8.52865 10.4681 8.57765 8.82917 9.49804 8.29721C10.4184 7.76611 11.863 8.543 12.7232 10.034" fill="#ED1C24"/>
</g>
</g>
</svg>
