<svg width="15" height="17" viewBox="0 0 15 17" fill="none" xmlns="http://www.w3.org/2000/svg">
<g id="noun-competency-based-assessment-27464" clip-path="url(#clip0_13_19878)">
<path id="Vector" d="M13.9449 9.02768C13.6893 6.7371 11.8186 4.95839 9.54537 4.95839C9.313 4.95839 9.08637 4.9827 8.8635 5.01857V1.0625C8.8635 0.47668 8.40482 0 7.84077 0H1.02272C0.458835 0 0 0.47668 0 1.0625V8.5C0 9.08582 0.458835 9.5625 1.02272 9.5625H5.11362C5.11362 10.8673 5.6384 12.0423 6.47719 12.88V17H11.9317V15.4062C13.0041 15.4062 13.8819 14.5491 13.9684 13.4584H13.9771V12.3959H14.659C14.8472 12.3959 14.9998 12.2371 14.9998 12.0416C15 11.9619 13.9449 9.02768 13.9449 9.02768ZM8.18179 8.5C8.18179 8.6955 8.02846 8.85411 7.84044 8.85411H7.49992C7.31157 8.85411 7.15907 9.01255 7.15907 9.20839C7.15907 9.84708 7.53772 10.4521 7.91604 10.8972C6.06091 10.5497 5.80154 9.21315 5.79074 9.15042C5.76342 8.9794 5.62138 8.85428 5.45447 8.85428H1.02272C0.834542 8.85428 0.68187 8.69567 0.68187 8.50017V1.0625C0.68187 0.867 0.834542 0.70839 1.02272 0.70839H7.84094C8.02912 0.70839 8.18179 0.867 8.18179 1.0625V8.5ZM12.4432 10.2709C12.1609 10.2709 11.9318 10.0329 11.9318 9.73964C11.9318 9.44622 12.1609 9.20839 12.4432 9.20839C12.7256 9.20839 12.9546 9.44622 12.9546 9.73964C12.9546 10.0329 12.7255 10.2709 12.4432 10.2709Z" fill="#134590"/>
<path id="Vector_2" d="M7.49981 1.77087H4.43164V2.47926H7.49981V1.77087Z" fill="#134590"/>
<path id="Vector_3" d="M7.49981 4.25H4.43164V4.95839H7.49981V4.25Z" fill="#134590"/>
<path id="Vector_4" d="M7.49981 6.72913H4.43164V7.43752H7.49981V6.72913Z" fill="#134590"/>
<path id="Vector_5" d="M2.38576 3.18746C2.33471 3.18746 2.28234 3.17556 2.23374 3.15006L1.55187 2.79595C1.38349 2.7084 1.31509 2.49573 1.39936 2.3208C1.48396 2.14587 1.68884 2.07532 1.85673 2.16236L2.28414 2.38438L3.13619 1.20424C3.24894 1.04767 3.46265 1.01622 3.61319 1.13352C3.7639 1.25065 3.7945 1.47267 3.68143 1.62907L2.65871 3.04568C2.5926 3.13765 2.49049 3.18746 2.38576 3.18746Z" fill="#134590"/>
<path id="Vector_6" d="M2.38576 5.66667C2.33471 5.66667 2.28234 5.6546 2.23374 5.62927L1.55187 5.27516C1.38349 5.18744 1.31509 4.97494 1.39936 4.80001C1.48396 4.62508 1.68884 4.55487 1.85673 4.64157L2.28414 4.86359L3.13619 3.68345C3.24894 3.52688 3.46265 3.4956 3.61319 3.61256C3.7639 3.72969 3.7945 3.95171 3.68143 4.10811L2.65871 5.52472C2.5926 5.61703 2.49049 5.66667 2.38576 5.66667Z" fill="#134590"/>
<path id="Vector_7" d="M3.03847 7.26032L3.3088 6.97948C3.442 6.84127 3.442 6.61704 3.3088 6.47866C3.1756 6.34028 2.95992 6.34028 2.82672 6.47866L2.5564 6.7595L2.28607 6.47866C2.15287 6.34028 1.9372 6.34028 1.804 6.47866C1.6708 6.61704 1.6708 6.8411 1.804 6.97948L2.07433 7.26032L1.804 7.54116C1.6708 7.67954 1.6708 7.9036 1.804 8.04198C1.8706 8.11117 1.95782 8.14568 2.04504 8.14568C2.13225 8.14568 2.21947 8.11117 2.28607 8.04198L2.5564 7.76114L2.82672 8.04198C2.89332 8.11117 2.98054 8.14568 3.06776 8.14568C3.15498 8.14568 3.2422 8.11117 3.3088 8.04198C3.442 7.90377 3.442 7.67954 3.3088 7.54116L3.03847 7.26032Z" fill="#134590"/>
</g>
<defs>
<clipPath id="clip0_13_19878">
<rect width="15" height="17" fill="white"/>
</clipPath>
</defs>
</svg>
