<svg width="24" height="24" viewBox="0 0 24 24" fill="none" xmlns="http://www.w3.org/2000/svg">
<g id="np_user_888681_000000 1">
<path id="Vector" d="M14.3537 14.0061C13.6478 13.6507 14.0246 12.9849 14.3537 12.6745C14.7773 12.2751 15.2952 10.8994 15.2952 10.8994C16.1423 10.544 16.2367 9.96726 16.3302 9.56778C16.707 8.41346 15.7655 8.2362 15.7655 8.2362C15.7655 8.2362 16.5182 6.32789 15.9067 4.86315C15.1064 2.95483 11.8593 2.24409 11.2946 4.0201C7.43596 3.22032 8.23537 8.23535 8.23537 8.23535C8.23537 8.23535 7.29388 8.41262 7.67066 9.56693C7.76507 9.96641 7.8586 10.5431 8.70567 10.8985C8.70567 10.8985 9.22363 12.2742 9.64716 12.6737C9.97628 12.9841 10.3531 13.6499 9.64716 14.0053C8.23537 14.7151 4 14.8933 4 18H20C20.0009 14.8933 15.7655 14.716 14.3537 14.0061Z" fill="#134590"/>
</g>
</svg>
