<svg width="46" height="46" viewBox="0 0 46 46" fill="none" xmlns="http://www.w3.org/2000/svg">
<g id="Group 1000002878">
<path id="Vector" d="M26.5022 39.9864V45.5263C25.2123 45.7488 23.9058 45.86 22.597 45.8591C17.5615 45.86 12.67 44.1821 8.6989 41.0919C4.72783 38.0015 1.90473 33.6759 0.677734 28.8018H15.2669H15.3299C21.2743 29.3098 26.4968 33.8308 26.4968 39.9472L26.5022 39.9864Z" fill="#ED1C24"/>
<path id="Vector_2" d="M44.5084 28.7969C43.5182 32.7241 41.4878 36.3132 38.6301 39.1878C35.7725 42.0627 32.1926 44.1172 28.2657 45.1366V39.9477C28.2599 38.4824 28.5446 37.0304 29.1039 35.6754C29.663 34.3205 30.4853 33.0897 31.5234 32.0534C32.5614 31.0173 33.7949 30.1966 35.1524 29.6386C36.5098 29.0806 37.9646 28.7962 39.4327 28.8022H39.4722L44.5084 28.7969Z" fill="#009A4E"/>
<path id="Vector_3" d="M0 0H26.5067V15.8393V15.8812C26.5067 21.7931 21.2999 27.0266 15.3398 27.0266H15.2795H0.320189C0.115287 25.7955 0.0125735 24.5499 0.013119 23.3019L0 0Z" fill="#FFCB05"/>
<path id="Vector_4" d="M45.1847 0.00195312V23.3143C45.1862 24.5612 45.0844 25.8062 44.8802 27.0364H39.4425C33.4668 27.0364 28.2676 21.7793 28.2676 15.8282V0.00195312H45.1847Z" fill="#007DC5"/>
</g>
</svg>
