<svg width="24" height="24" viewBox="0 0 24 24" fill="none" xmlns="http://www.w3.org/2000/svg">
<g id="HiDotsVertical">
<path id="Vector" d="M12.0001 7.20002C11.3636 7.20002 10.7531 6.94717 10.303 6.49708C9.85295 6.04699 9.6001 5.43654 9.6001 4.80002C9.6001 4.1635 9.85295 3.55306 10.303 3.10297C10.7531 2.65288 11.3636 2.40002 12.0001 2.40002C12.6366 2.40002 13.2471 2.65288 13.6972 3.10297C14.1472 3.55306 14.4001 4.1635 14.4001 4.80002C14.4001 5.43654 14.1472 6.04699 13.6972 6.49708C13.2471 6.94717 12.6366 7.20002 12.0001 7.20002ZM12.0001 14.4C11.3636 14.4 10.7531 14.1472 10.303 13.6971C9.85295 13.247 9.6001 12.6365 9.6001 12C9.6001 11.3635 9.85295 10.7531 10.303 10.303C10.7531 9.85288 11.3636 9.60002 12.0001 9.60002C12.6366 9.60002 13.2471 9.85288 13.6972 10.303C14.1472 10.7531 14.4001 11.3635 14.4001 12C14.4001 12.6365 14.1472 13.247 13.6972 13.6971C13.2471 14.1472 12.6366 14.4 12.0001 14.4ZM12.0001 21.6C11.3636 21.6 10.7531 21.3472 10.303 20.8971C9.85295 20.447 9.6001 19.8365 9.6001 19.2C9.6001 18.5635 9.85295 17.9531 10.303 17.503C10.7531 17.0529 11.3636 16.8 12.0001 16.8C12.6366 16.8 13.2471 17.0529 13.6972 17.503C14.1472 17.9531 14.4001 18.5635 14.4001 19.2C14.4001 19.8365 14.1472 20.447 13.6972 20.8971C13.2471 21.3472 12.6366 21.6 12.0001 21.6Z" fill="black"/>
</g>
</svg>
