<svg width="15" height="16" viewBox="0 0 15 16" fill="none" xmlns="http://www.w3.org/2000/svg">
<g id="Frame">
<path id="Vector" d="M7.5 9.05C7.33472 9.05 7.19618 8.99969 7.08437 8.89906C6.97257 8.79844 6.91667 8.67375 6.91667 8.525C6.91667 8.37625 6.97257 8.25156 7.08437 8.15094C7.19618 8.05031 7.33472 8 7.5 8C7.66528 8 7.80382 8.05031 7.91563 8.15094C8.02743 8.25156 8.08333 8.37625 8.08333 8.525C8.08333 8.67375 8.02743 8.79844 7.91563 8.89906C7.80382 8.99969 7.66528 9.05 7.5 9.05ZM5.16667 9.05C5.00139 9.05 4.86285 8.99969 4.75104 8.89906C4.63924 8.79844 4.58333 8.67375 4.58333 8.525C4.58333 8.37625 4.63924 8.25156 4.75104 8.15094C4.86285 8.05031 5.00139 8 5.16667 8C5.33194 8 5.47049 8.05031 5.58229 8.15094C5.6941 8.25156 5.75 8.37625 5.75 8.525C5.75 8.67375 5.6941 8.79844 5.58229 8.89906C5.47049 8.99969 5.33194 9.05 5.16667 9.05ZM9.83333 9.05C9.66806 9.05 9.52951 8.99969 9.41771 8.89906C9.3059 8.79844 9.25 8.67375 9.25 8.525C9.25 8.37625 9.3059 8.25156 9.41771 8.15094C9.52951 8.05031 9.66806 8 9.83333 8C9.99861 8 10.1372 8.05031 10.249 8.15094C10.3608 8.25156 10.4167 8.37625 10.4167 8.525C10.4167 8.67375 10.3608 8.79844 10.249 8.89906C10.1372 8.99969 9.99861 9.05 9.83333 9.05ZM7.5 11.15C7.33472 11.15 7.19618 11.0997 7.08437 10.9991C6.97257 10.8984 6.91667 10.7737 6.91667 10.625C6.91667 10.4762 6.97257 10.3516 7.08437 10.2509C7.19618 10.1503 7.33472 10.1 7.5 10.1C7.66528 10.1 7.80382 10.1503 7.91563 10.2509C8.02743 10.3516 8.08333 10.4762 8.08333 10.625C8.08333 10.7737 8.02743 10.8984 7.91563 10.9991C7.80382 11.0997 7.66528 11.15 7.5 11.15ZM5.16667 11.15C5.00139 11.15 4.86285 11.0997 4.75104 10.9991C4.63924 10.8984 4.58333 10.7737 4.58333 10.625C4.58333 10.4762 4.63924 10.3516 4.75104 10.2509C4.86285 10.1503 5.00139 10.1 5.16667 10.1C5.33194 10.1 5.47049 10.1503 5.58229 10.2509C5.6941 10.3516 5.75 10.4762 5.75 10.625C5.75 10.7737 5.6941 10.8984 5.58229 10.9991C5.47049 11.0997 5.33194 11.15 5.16667 11.15ZM9.83333 11.15C9.66806 11.15 9.52951 11.0997 9.41771 10.9991C9.3059 10.8984 9.25 10.7737 9.25 10.625C9.25 10.4762 9.3059 10.3516 9.41771 10.2509C9.52951 10.1503 9.66806 10.1 9.83333 10.1C9.99861 10.1 10.1372 10.1503 10.249 10.2509C10.3608 10.3516 10.4167 10.4762 10.4167 10.625C10.4167 10.7737 10.3608 10.8984 10.249 10.9991C10.1372 11.0997 9.99861 11.15 9.83333 11.15ZM3.41667 13.25C3.09583 13.25 2.82118 13.1472 2.59271 12.9416C2.36424 12.7359 2.25 12.4887 2.25 12.2V4.85C2.25 4.56125 2.36424 4.31406 2.59271 4.10844C2.82118 3.90281 3.09583 3.8 3.41667 3.8H4V2.75H5.16667V3.8H9.83333V2.75H11V3.8H11.5833C11.9042 3.8 12.1788 3.90281 12.4073 4.10844C12.6358 4.31406 12.75 4.56125 12.75 4.85V12.2C12.75 12.4887 12.6358 12.7359 12.4073 12.9416C12.1788 13.1472 11.9042 13.25 11.5833 13.25H3.41667ZM3.41667 12.2H11.5833V6.95H3.41667V12.2Z" fill="#252525"/>
</g>
</svg>
