<svg width="18" height="22" viewBox="0 0 18 22" fill="none" xmlns="http://www.w3.org/2000/svg">
<g id="notebook">
<path id="Combo shape" fill-rule="evenodd" clip-rule="evenodd" d="M5.75 1.5C5.75 1.08579 5.41421 0.75 5 0.75C4.58579 0.75 4.25 1.08579 4.25 1.5V3H4C1.79086 3 0 4.79086 0 7V17.5C0 19.7091 1.79086 21.5 4 21.5H14C16.2091 21.5 18 19.7091 18 17.5V7C18 4.79086 16.2091 3 14 3H13.75V1.5C13.75 1.08579 13.4142 0.75 13 0.75C12.5858 0.75 12.25 1.08579 12.25 1.5V3H5.75V1.5ZM5 11.75C4.58579 11.75 4.25 12.0858 4.25 12.5C4.25 12.9142 4.58579 13.25 5 13.25H13C13.4142 13.25 13.75 12.9142 13.75 12.5C13.75 12.0858 13.4142 11.75 13 11.75H5ZM4.25 8.5C4.25 8.08579 4.58579 7.75 5 7.75H13C13.4142 7.75 13.75 8.08579 13.75 8.5C13.75 8.91421 13.4142 9.25 13 9.25H5C4.58579 9.25 4.25 8.91421 4.25 8.5ZM5 15.75C4.58579 15.75 4.25 16.0858 4.25 16.5C4.25 16.9142 4.58579 17.25 5 17.25H9C9.41421 17.25 9.75 16.9142 9.75 16.5C9.75 16.0858 9.41421 15.75 9 15.75H5Z" fill="white"/>
</g>
</svg>
