<svg width="24" height="25" viewBox="0 0 24 25" fill="none" xmlns="http://www.w3.org/2000/svg">
<g id="Huge-icon/business/outline/chart-notification">
<path id="Vector" d="M22 10.5V18.5C22 20.7091 20.2091 22.5 18 22.5H6C3.79086 22.5 2 20.7091 2 18.5V6.5C2 4.29086 3.79086 2.5 6 2.5H14M5 12.5H6C7.10457 12.5 8 11.6046 8 10.5V9.5C8 8.39543 8.89543 7.5 10 7.5C11.1046 7.5 12 8.39543 12 9.5V15.5C12 16.6046 12.8954 17.5 14 17.5C15.1046 17.5 16 16.6046 16 15.5V14.5C16 13.3954 16.8954 12.5 18 12.5H19M22 5C22 6.38071 20.8807 7.5 19.5 7.5C18.1193 7.5 17 6.38071 17 5C17 3.61929 18.1193 2.5 19.5 2.5C20.8807 2.5 22 3.61929 22 5Z" stroke="white" stroke-width="1.5" stroke-linecap="round"/>
</g>
</svg>
