<svg width="20" height="21" viewBox="0 0 20 21" fill="none" xmlns="http://www.w3.org/2000/svg">
<g id="chart-notification">
<path id="combo shape" fill-rule="evenodd" clip-rule="evenodd" d="M17.5 7C18.4459 7 19.3152 6.67164 20 6.12269V16.5C20 18.7091 18.2091 20.5 16 20.5H4C1.79086 20.5 0 18.7091 0 16.5V4.5C0 2.29086 1.79086 0.5 4 0.5H14.3773C13.8284 1.1848 13.5 2.05405 13.5 3C13.5 5.20914 15.2909 7 17.5 7ZM6.75 7.5C6.75 6.80964 7.30964 6.25 8 6.25C8.69036 6.25 9.25 6.80964 9.25 7.5V13.5C9.25 15.0188 10.4812 16.25 12 16.25C13.5188 16.25 14.75 15.0188 14.75 13.5V12.5C14.75 11.8096 15.3096 11.25 16 11.25H17C17.4142 11.25 17.75 10.9142 17.75 10.5C17.75 10.0858 17.4142 9.75 17 9.75H16C14.4812 9.75 13.25 10.9812 13.25 12.5V13.5C13.25 14.1904 12.6904 14.75 12 14.75C11.3096 14.75 10.75 14.1904 10.75 13.5V7.5C10.75 5.98122 9.51878 4.75 8 4.75C6.48122 4.75 5.25 5.98122 5.25 7.5V8.5C5.25 9.19036 4.69036 9.75 4 9.75H3C2.58579 9.75 2.25 10.0858 2.25 10.5C2.25 10.9142 2.58579 11.25 3 11.25H4C5.51878 11.25 6.75 10.0188 6.75 8.5V7.5ZM17.5 5.5C18.8807 5.5 20 4.38071 20 3C20 1.61929 18.8807 0.5 17.5 0.5C16.1193 0.5 15 1.61929 15 3C15 4.38071 16.1193 5.5 17.5 5.5Z" fill="white"/>
</g>
</svg>
