<svg width="29" height="30" viewBox="0 0 29 30" fill="none" xmlns="http://www.w3.org/2000/svg">
<g id="Frame" clip-path="url(#clip0_16160_44525)">
<path id="Vector" d="M14.7038 17.6348C14.2598 17.6348 13.8877 17.5026 13.5873 17.2382C13.287 16.9738 13.1368 16.6461 13.1368 16.2553C13.1368 15.8644 13.287 15.5367 13.5873 15.2723C13.8877 15.0079 14.2598 14.8757 14.7038 14.8757C15.1477 14.8757 15.5199 15.0079 15.8202 15.2723C16.1205 15.5367 16.2707 15.8644 16.2707 16.2553C16.2707 16.6461 16.1205 16.9738 15.8202 17.2382C15.5199 17.5026 15.1477 17.6348 14.7038 17.6348ZM8.43611 17.6348C7.99216 17.6348 7.62001 17.5026 7.31969 17.2382C7.01937 16.9738 6.8692 16.6461 6.8692 16.2553C6.8692 15.8644 7.01937 15.5367 7.31969 15.2723C7.62001 15.0079 7.99216 14.8757 8.43611 14.8757C8.88007 14.8757 9.25221 15.0079 9.55254 15.2723C9.85286 15.5367 10.003 15.8644 10.003 16.2553C10.003 16.6461 9.85286 16.9738 9.55254 17.2382C9.25221 17.5026 8.88007 17.6348 8.43611 17.6348ZM20.9714 17.6348C20.5274 17.6348 20.1553 17.5026 19.855 17.2382C19.5546 16.9738 19.4045 16.6461 19.4045 16.2553C19.4045 15.8644 19.5546 15.5367 19.855 15.2723C20.1553 15.0079 20.5274 14.8757 20.9714 14.8757C21.4154 14.8757 21.7875 15.0079 22.0878 15.2723C22.3881 15.5367 22.5383 15.8644 22.5383 16.2553C22.5383 16.6461 22.3881 16.9738 22.0878 17.2382C21.7875 17.5026 21.4154 17.6348 20.9714 17.6348ZM14.7038 23.1531C14.2598 23.1531 13.8877 23.0209 13.5873 22.7564C13.287 22.492 13.1368 22.1644 13.1368 21.7735C13.1368 21.3826 13.287 21.055 13.5873 20.7906C13.8877 20.5262 14.2598 20.3939 14.7038 20.3939C15.1477 20.3939 15.5199 20.5262 15.8202 20.7906C16.1205 21.055 16.2707 21.3826 16.2707 21.7735C16.2707 22.1644 16.1205 22.492 15.8202 22.7564C15.5199 23.0209 15.1477 23.1531 14.7038 23.1531ZM8.43611 23.1531C7.99216 23.1531 7.62001 23.0209 7.31969 22.7564C7.01937 22.492 6.8692 22.1644 6.8692 21.7735C6.8692 21.3826 7.01937 21.055 7.31969 20.7906C7.62001 20.5262 7.99216 20.3939 8.43611 20.3939C8.88007 20.3939 9.25221 20.5262 9.55254 20.7906C9.85286 21.055 10.003 21.3826 10.003 21.7735C10.003 22.1644 9.85286 22.492 9.55254 22.7564C9.25221 23.0209 8.88007 23.1531 8.43611 23.1531ZM20.9714 23.1531C20.5274 23.1531 20.1553 23.0209 19.855 22.7564C19.5546 22.492 19.4045 22.1644 19.4045 21.7735C19.4045 21.3826 19.5546 21.055 19.855 20.7906C20.1553 20.5262 20.5274 20.3939 20.9714 20.3939C21.4154 20.3939 21.7875 20.5262 22.0878 20.7906C22.3881 21.055 22.5383 21.3826 22.5383 21.7735C22.5383 22.1644 22.3881 22.492 22.0878 22.7564C21.7875 23.0209 21.4154 23.1531 20.9714 23.1531ZM2.95193 28.6713C2.32516 28.6713 1.77675 28.4644 1.30667 28.0505C0.836599 27.6366 0.601562 27.1538 0.601562 26.602V5.21876C0.601562 4.66694 0.836599 4.18409 1.30667 3.77022C1.77675 3.35636 2.32516 3.14942 2.95193 3.14942H5.49816V1.08008H8.04439V3.14942H21.3631V1.08008H23.9094V3.14942H26.4556C27.0823 3.14942 27.6308 3.35636 28.1008 3.77022C28.5709 4.18409 28.8059 4.66694 28.8059 5.21876V26.602C28.8059 27.1538 28.5709 27.6366 28.1008 28.0505C27.6308 28.4644 27.0823 28.6713 26.4556 28.6713H2.95193ZM2.95193 26.602H26.4556V11.7717H2.95193V26.602Z" fill="white"/>
</g>
<defs>
<clipPath id="clip0_16160_44525">
<rect width="28.2044" height="33.1095" fill="white" transform="translate(0.601562 -1.98633)"/>
</clipPath>
</defs>
</svg>
