<svg width="16" height="17" viewBox="0 0 16 17" fill="none" xmlns="http://www.w3.org/2000/svg">
<g id="setting">
<path id="Subtract" fill-rule="evenodd" clip-rule="evenodd" d="M7.15151 0.5H8.84849C9.7857 0.5 10.5455 1.21634 10.5455 2.1C10.5455 3.11122 11.6274 3.75412 12.5156 3.27065L12.6058 3.22154C13.4174 2.77972 14.4553 3.04192 14.9239 3.80719L15.7724 5.19283C16.241 5.95809 15.9629 6.93664 15.1512 7.37847C14.2627 7.86216 14.2627 9.13784 15.1512 9.62153C15.9629 10.0634 16.241 11.0419 15.7724 11.8072L14.9239 13.1928C14.4553 13.9581 13.4174 14.2203 12.6058 13.7785L12.5156 13.7294C11.6274 13.2459 10.5455 13.8888 10.5455 14.9C10.5455 15.7837 9.7857 16.5 8.84849 16.5H7.15151C6.2143 16.5 5.45454 15.7837 5.45454 14.9C5.45454 13.8888 4.37259 13.2459 3.48444 13.7294L3.39424 13.7785C2.58258 14.2203 1.54473 13.9581 1.07612 13.1928L0.227635 11.8072C-0.240972 11.0419 0.0371203 10.0634 0.848771 9.62154C1.73734 9.13785 1.73734 7.86215 0.848773 7.37846C0.0371216 6.93663 -0.240971 5.95808 0.227636 5.19281L1.07612 3.80717C1.54473 3.04191 2.58259 2.77971 3.39424 3.22153L3.48444 3.27064C4.37259 3.75411 5.45454 3.11121 5.45454 2.1C5.45454 1.21634 6.2143 0.5 7.15151 0.5ZM8.00001 11.5C9.65686 11.5 11 10.1569 11 8.5C11 6.84315 9.65686 5.5 8.00001 5.5C6.34315 5.5 5.00001 6.84315 5.00001 8.5C5.00001 10.1569 6.34315 11.5 8.00001 11.5Z" fill="white"/>
</g>
</svg>
