<svg width="24" height="25" viewBox="0 0 24 25" fill="none" xmlns="http://www.w3.org/2000/svg">
<g id="Component 22">
<path id="Vector" d="M9.25313 22.5L8.85313 19.3C8.63646 19.2167 8.43229 19.1167 8.24062 19C8.04896 18.8833 7.86146 18.7583 7.67812 18.625L4.70312 19.875L1.95312 15.125L4.52813 13.175C4.51146 13.0583 4.50312 12.9458 4.50312 12.8375V12.1625C4.50312 12.0542 4.51146 11.9417 4.52813 11.825L1.95312 9.875L4.70312 5.125L7.67812 6.375C7.86146 6.24167 8.05312 6.11667 8.25313 6C8.45312 5.88333 8.65313 5.78333 8.85313 5.7L9.25313 2.5H14.7531L15.1531 5.7C15.3698 5.78333 15.574 5.88333 15.7656 6C15.9573 6.11667 16.1448 6.24167 16.3281 6.375L19.3031 5.125L22.0531 9.875L19.4781 11.825C19.4948 11.9417 19.5031 12.0542 19.5031 12.1625V12.8375C19.5031 12.9458 19.4865 13.0583 19.4531 13.175L22.0281 15.125L19.2781 19.875L16.3281 18.625C16.1448 18.7583 15.9531 18.8833 15.7531 19C15.5531 19.1167 15.3531 19.2167 15.1531 19.3L14.7531 22.5H9.25313ZM11.0031 20.5H12.9781L13.3281 17.85C13.8448 17.7167 14.324 17.5208 14.7656 17.2625C15.2073 17.0042 15.6115 16.6917 15.9781 16.325L18.4531 17.35L19.4281 15.65L17.2781 14.025C17.3615 13.7917 17.4198 13.5458 17.4531 13.2875C17.4865 13.0292 17.5031 12.7667 17.5031 12.5C17.5031 12.2333 17.4865 11.9708 17.4531 11.7125C17.4198 11.4542 17.3615 11.2083 17.2781 10.975L19.4281 9.35L18.4531 7.65L15.9781 8.7C15.6115 8.31667 15.2073 7.99583 14.7656 7.7375C14.324 7.47917 13.8448 7.28333 13.3281 7.15L13.0031 4.5H11.0281L10.6781 7.15C10.1615 7.28333 9.68229 7.47917 9.24062 7.7375C8.79896 7.99583 8.39479 8.30833 8.02813 8.675L5.55313 7.65L4.57812 9.35L6.72813 10.95C6.64479 11.2 6.58646 11.45 6.55312 11.7C6.51979 11.95 6.50313 12.2167 6.50313 12.5C6.50313 12.7667 6.51979 13.025 6.55312 13.275C6.58646 13.525 6.64479 13.775 6.72813 14.025L4.57812 15.65L5.55313 17.35L8.02813 16.3C8.39479 16.6833 8.79896 17.0042 9.24062 17.2625C9.68229 17.5208 10.1615 17.7167 10.6781 17.85L11.0031 20.5ZM12.0531 16C13.0198 16 13.8448 15.6583 14.5281 14.975C15.2115 14.2917 15.5531 13.4667 15.5531 12.5C15.5531 11.5333 15.2115 10.7083 14.5281 10.025C13.8448 9.34167 13.0198 9 12.0531 9C11.0698 9 10.2406 9.34167 9.56563 10.025C8.89062 10.7083 8.55312 11.5333 8.55312 12.5C8.55312 13.4667 8.89062 14.2917 9.56563 14.975C10.2406 15.6583 11.0698 16 12.0531 16Z" fill="white"/>
</g>
</svg>
