<svg width="31" height="30" viewBox="0 0 31 30" fill="none" xmlns="http://www.w3.org/2000/svg">
<g id="Frame" clip-path="url(#clip0_16160_44514)">
<path id="Vector" d="M11.6684 15.1815C11.2124 15.1815 10.8378 14.984 10.5446 14.5888C10.2514 14.1937 10.1483 13.7492 10.2352 13.2552L10.7238 9.92131C10.8975 8.85939 11.3372 7.98886 12.043 7.30972C12.7487 6.63058 13.5685 6.29102 14.5022 6.29102C15.4577 6.29102 16.2883 6.63058 16.9941 7.30972C17.6998 7.98886 18.1395 8.85939 18.3133 9.92131L18.8019 13.2552C18.8887 13.7492 18.7856 14.1937 18.4924 14.5888C18.1993 14.984 17.8247 15.1815 17.3686 15.1815H11.6684ZM3.39483 17.8153C2.96053 17.8376 2.58214 17.74 2.25966 17.5227C1.93719 17.3054 1.7271 16.9685 1.62938 16.5121C1.59029 16.3165 1.58703 16.12 1.61961 15.9224C1.65218 15.7248 1.70104 15.5355 1.76618 15.3545C1.76618 15.377 1.75533 15.3317 1.73361 15.2186C1.73361 15.1939 1.63806 14.9338 1.44697 14.4384C1.39919 14.1683 1.41874 13.9282 1.5056 13.7183C1.59246 13.5084 1.72275 13.3046 1.89648 13.1071L1.96162 13.033C2.00505 12.6132 2.15467 12.2674 2.41048 11.9958C2.66607 11.7241 2.98333 11.5883 3.36226 11.5883C3.38398 11.5883 3.55944 11.6253 3.88864 11.6994L3.98115 11.6624C4.08972 11.5636 4.21643 11.4833 4.36127 11.4216C4.5059 11.3598 4.65964 11.329 4.82251 11.329C5.02164 11.329 5.20806 11.3722 5.38179 11.4586C5.55551 11.5451 5.68906 11.6638 5.78243 11.815C5.80111 11.815 5.81511 11.8204 5.82445 11.8313C5.83379 11.8422 5.8478 11.8476 5.86647 11.8476C6.12814 11.8691 6.35713 11.9609 6.55344 12.1232C6.74953 12.2852 6.90186 12.5061 7.01044 12.7859C7.05387 12.9368 7.07015 13.0821 7.05929 13.2219C7.04844 13.3619 7.02129 13.4965 6.97786 13.6257C6.97786 13.6751 6.98872 13.7121 7.01044 13.7368C7.14225 13.8887 7.24572 14.0569 7.32086 14.2414C7.39621 14.4258 7.43388 14.6157 7.43388 14.8111C7.43388 14.8605 7.3796 15.0851 7.27102 15.4849C7.2493 15.5321 7.2493 15.5791 7.27102 15.6261C7.29274 15.7248 7.30359 15.8977 7.30359 16.1447C7.30359 16.5892 7.13834 16.9788 6.80783 17.3134C6.47754 17.648 6.07635 17.8153 5.60426 17.8153H3.39483ZM25.1832 17.7746C24.5554 17.7746 24.019 17.5191 23.5738 17.0082C23.1286 16.4972 22.9061 15.883 22.9061 15.1656C22.9061 14.9046 22.9441 14.6567 23.0201 14.4221C23.0961 14.1875 23.1884 13.9714 23.2969 13.7739L22.4826 12.9589C22.3089 12.7613 22.2763 12.5391 22.3849 12.2921C22.4935 12.0452 22.6621 11.9217 22.8907 11.9217H25.1787C25.8078 11.9217 26.3463 12.1769 26.7943 12.6874C27.2423 13.1981 27.4663 13.8119 27.4663 14.5288V15.1804C27.4663 15.8973 27.2427 16.5089 26.7956 17.0152C26.3485 17.5215 25.811 17.7746 25.1832 17.7746ZM-1.13281 24.072V22.1087C-1.13281 21.1342 -0.676791 20.3535 0.235253 19.7664C1.1473 19.1794 2.32427 18.8859 3.76617 18.8859C4.03022 18.8859 4.28408 18.8921 4.52772 18.9044C4.77137 18.9168 5.01263 18.9443 5.25149 18.987C5.07777 19.4135 4.94748 19.8437 4.86062 20.2776C4.77376 20.7115 4.73033 21.1737 4.73033 21.6642V24.072H-1.13281ZM6.68471 24.072V21.6642C6.68471 20.059 7.40674 18.7624 8.85081 17.7746C10.2949 16.7868 12.1787 16.2928 14.5022 16.2928C16.8475 16.2928 18.7367 16.7868 20.1699 17.7746C21.6031 18.7624 22.3197 20.059 22.3197 21.6642V24.072H6.68471ZM25.2513 18.8859C26.7171 18.8859 27.8979 19.1794 28.7936 19.7664C29.6894 20.3535 30.1373 21.1342 30.1373 22.1087V24.072H24.2741V21.6642C24.2741 21.1737 24.2361 20.7115 24.1601 20.2776C24.0841 19.8437 23.9592 19.4135 23.7855 18.987C24.0244 18.9443 24.2651 18.9168 24.5077 18.9044C24.7502 18.8921 24.9981 18.8859 25.2513 18.8859Z" fill="white"/>
</g>
<defs>
<clipPath id="clip0_16160_44514">
<rect width="31.2701" height="35.562" fill="white" transform="translate(-1.13281 -2.59961)"/>
</clipPath>
</defs>
</svg>
