<svg width="30" height="30" viewBox="0 0 30 30" fill="none" xmlns="http://www.w3.org/2000/svg">
<g id="Frame">
<path id="Vector" d="M5.25724 24.9915C4.58279 24.9915 4.00542 24.7514 3.52513 24.2711C3.04483 23.7908 2.80469 23.2134 2.80469 22.539V7.82365C2.80469 7.1492 3.04483 6.57182 3.52513 6.09153C4.00542 5.61124 4.58279 5.37109 5.25724 5.37109H19.9726C20.647 5.37109 21.2244 5.61124 21.7047 6.09153C22.185 6.57182 22.4251 7.1492 22.4251 7.82365V13.3419L27.3302 8.43679V21.9258L22.4251 17.0207V22.539C22.4251 23.2134 22.185 23.7908 21.7047 24.2711C21.2244 24.7514 20.647 24.9915 19.9726 24.9915H5.25724Z" fill="white"/>
</g>
</svg>
